ISO-10303-21;
HEADER;
FILE_DESCRIPTION (( 'STEP AP214' ),
    '1' );
FILE_NAME ('Carvera吸尘转接口.STEP',
    '2024-12-30T07:03:25',
    ( '' ),
    ( '' ),
    'SwSTEP 2.0',
    'SolidWorks 2021',
    '' );
FILE_SCHEMA (( 'AUTOMOTIVE_DESIGN' ));
ENDSEC;

DATA;
#1 = DIRECTION ( 'NONE',  ( 0.000000000000000000, 1.000000000000000000, 0.000000000000000000 ) ) ;
#2 = APPLICATION_CONTEXT ( 'automotive_design' ) ;
#3 = APPLICATION_PROTOCOL_DEFINITION ( 'draft international standard', 'automotive_design', 1998, #93 ) ;
#4 = AXIS2_PLACEMENT_3D ( 'NONE', #580, #955, #18 ) ;
#5 = ORIENTED_EDGE ( 'NONE', *, *, #466, .F. ) ;
#6 = CARTESIAN_POINT ( 'NONE',  ( 0.000000000000000000, 0.000000000000000000, 0.000000000000000000 ) ) ;
#7 = COLOUR_RGB ( '',1.000000000000000000, 1.000000000000000000, 1.000000000000000000 ) ;
#8 = FILL_AREA_STYLE ('',( #860 ) ) ;
#9 = DIRECTION ( 'NONE',  ( 0.000000000000000000, 0.000000000000000000, 1.000000000000000000 ) ) ;
#10 = AXIS2_PLACEMENT_3D ( 'NONE', #583, #313, #205 ) ;
#11 = CARTESIAN_POINT ( 'NONE',  ( 0.000000000000000000, 0.000000000000000000, -20.49999999999999645 ) ) ;
#12 = EDGE_CURVE ( 'NONE', #870, #870, #553, .T. ) ;
#13 = DIRECTION ( 'NONE',  ( -0.000000000000000000, -1.000000000000000000, -0.000000000000000000 ) ) ;
#14 = APPLICATION_PROTOCOL_DEFINITION ( 'draft international standard', 'automotive_design', 1998, #23 ) ;
#15 = CARTESIAN_POINT ( 'NONE',  ( 0.000000000000000000, 26.66987298107780546, -20.49999999999999289 ) ) ;
#16 = CARTESIAN_POINT ( 'NONE',  ( 0.000000000000000000, 0.000000000000000000, 0.000000000000000000 ) ) ;
#17 = AXIS2_PLACEMENT_3D ( 'NONE', #684, #129, #975 ) ;
#18 = DIRECTION ( 'NONE',  ( 0.000000000000000000, 0.000000000000000000, -1.000000000000000000 ) ) ;
#19 = CIRCLE ( 'NONE', #1127, 21.50000000000000000 ) ;
#20 = VERTEX_POINT ( 'NONE', #1059 ) ;
#21 = UNCERTAINTY_MEASURE_WITH_UNIT (LENGTH_MEASURE( 1.000000000000000082E-05 ), #1221, 'distance_accuracy_value', 'NONE');
#22 = CARTESIAN_POINT ( 'NONE',  ( 0.000000000000000000, 0.000000000000000000, -17.50000000000000000 ) ) ;
#23 = APPLICATION_CONTEXT ( 'automotive_design' ) ;
#24 = FILL_AREA_STYLE ('',( #1153 ) ) ;
#25 = ITEM_DEFINED_TRANSFORMATION ( 'NONE', 'NONE', #581,  #751 ) ;
#26 = ADVANCED_FACE ( 'NONE', ( #1083, #1180 ), #512, .T. ) ;
#27 = DIRECTION ( 'NONE',  ( 0.000000000000000000, -1.000000000000000000, -0.000000000000000000 ) ) ;
#28 = AXIS2_PLACEMENT_3D ( 'NONE', #128, #41, #416 ) ;
#29 = CARTESIAN_POINT ( 'NONE',  ( 0.000000000000000000, 0.000000000000000000, 0.000000000000000000 ) ) ;
#30 = CARTESIAN_POINT ( 'NONE',  ( 0.000000000000000000, 0.000000000000000000, 0.000000000000000000 ) ) ;
#31 = CONTEXT_DEPENDENT_SHAPE_REPRESENTATION ( #188, #255 ) ;
#32 = CARTESIAN_POINT ( 'NONE',  ( 0.000000000000000000, 57.25833024919752035, 0.000000000000000000 ) ) ;
#33 = ADVANCED_FACE ( 'NONE', ( #705, #1090 ), #141, .F. ) ;
#34 =( LENGTH_UNIT ( ) NAMED_UNIT ( * ) SI_UNIT ( .MILLI., .METRE. ) );
#35 = UNCERTAINTY_MEASURE_WITH_UNIT (LENGTH_MEASURE( 1.000000000000000082E-05 ), #714, 'distance_accuracy_value', 'NONE');
#36 = DIRECTION ( 'NONE',  ( 0.000000000000000000, 0.000000000000000000, -1.000000000000000000 ) ) ;
#37 = FILL_AREA_STYLE ('',( #133 ) ) ;
#38 = CARTESIAN_POINT ( 'NONE',  ( 0.000000000000000000, 0.000000000000000000, 0.000000000000000000 ) ) ;
#39 = PLANE ( 'NONE',  #1086 ) ;
#40 =( NAMED_UNIT ( * ) PLANE_ANGLE_UNIT ( ) SI_UNIT ( $, .RADIAN. ) );
#41 = DIRECTION ( 'NONE',  ( -0.000000000000000000, -1.000000000000000000, -0.000000000000000000 ) ) ;
#42 = CYLINDRICAL_SURFACE ( 'NONE', #102, 9.000000000000000000 ) ;
#43 = FACE_BOUND ( 'NONE', #497, .T. ) ;
#44 = CIRCLE ( 'NONE', #110, 8.999999999999998224 ) ;
#45 = EDGE_LOOP ( 'NONE', ( #1102 ) ) ;
#46 = ADVANCED_FACE ( 'NONE', ( #678, #226 ), #617, .T. ) ;
#47 = VERTEX_POINT ( 'NONE', #173 ) ;
#48 = EDGE_LOOP ( 'NONE', ( #833 ) ) ;
#49 = DIRECTION ( 'NONE',  ( 0.000000000000000000, 0.000000000000000000, -1.000000000000000000 ) ) ;
#50 = EDGE_LOOP ( 'NONE', ( #53 ) ) ;
#51 = FACE_OUTER_BOUND ( 'NONE', #250, .T. ) ;
#52 = VERTEX_POINT ( 'NONE', #1124 ) ;
#53 = ORIENTED_EDGE ( 'NONE', *, *, #64, .F. ) ;
#54 = ADVANCED_FACE ( 'NONE', ( #150, #1171 ), #1068, .T. ) ;
#55 = FACE_OUTER_BOUND ( 'NONE', #1188, .T. ) ;
#56 = CARTESIAN_POINT ( 'NONE',  ( 0.000000000000000000, 43.32050807568855788, 0.000000000000000000 ) ) ;
#57 = CONICAL_SURFACE ( 'NONE', #781, 9.000000000000000000, 0.5235987755983041447 ) ;
#58 = EDGE_LOOP ( 'NONE', ( #728 ) ) ;
#59 = FACE_OUTER_BOUND ( 'NONE', #715, .T. ) ;
#60 = UNCERTAINTY_MEASURE_WITH_UNIT (LENGTH_MEASURE( 1.000000000000000082E-05 ), #1055, 'distance_accuracy_value', 'NONE');
#61 = EDGE_LOOP ( 'NONE', ( #1117 ) ) ;
#62 = AXIS2_PLACEMENT_3D ( 'NONE', #778, #591, #964 ) ;
#63 = PRODUCT_DEFINITION_SHAPE ( 'NONE', 'NONE',  #1235 ) ;
#64 = EDGE_CURVE ( 'NONE', #586, #586, #337, .T. ) ;
#65 =( REPRESENTATION_RELATIONSHIP ('NONE','NONE', #372, #330 ) REPRESENTATION_RELATIONSHIP_WITH_TRANSFORMATION ( #480 )SHAPE_REPRESENTATION_RELATIONSHIP( ) );
#66 = EDGE_LOOP ( 'NONE', ( #996 ) ) ;
#67 = AXIS2_PLACEMENT_3D ( 'NONE', #950, #752, #103 ) ;
#68 = AXIS2_PLACEMENT_3D ( 'NONE', #74, #247, #1109 ) ;
#69 = EDGE_CURVE ( 'NONE', #317, #317, #1164, .T. ) ;
#70 = ORIENTED_EDGE ( 'NONE', *, *, #597, .F. ) ;
#71 = CARTESIAN_POINT ( 'NONE',  ( 0.000000000000000000, 53.71281292110170114, 0.000000000000000000 ) ) ;
#72 = PRODUCT_DEFINITION_SHAPE ( 'NONE', 'NONE',  #1234 ) ;
#73 = DIRECTION ( 'NONE',  ( -0.000000000000000000, -1.000000000000000000, -0.000000000000000000 ) ) ;
#74 = CARTESIAN_POINT ( 'NONE',  ( 0.000000000000000000, 26.00000000000000000, 0.000000000000000000 ) ) ;
#75 =( NAMED_UNIT ( * ) PLANE_ANGLE_UNIT ( ) SI_UNIT ( $, .RADIAN. ) );
#76 = AXIS2_PLACEMENT_3D ( 'NONE', #869, #331, #694 ) ;
#77 = CARTESIAN_POINT ( 'NONE',  ( 0.000000000000000000, 26.00000000000000000, -25.00000000000000000 ) ) ;
#78 = CIRCLE ( 'NONE', #766, 25.00000000000000000 ) ;
#79 = EDGE_LOOP ( 'NONE', ( #359 ) ) ;
#80 = CARTESIAN_POINT ( 'NONE',  ( 0.000000000000000000, 69.74871130596392277, 0.000000000000000000 ) ) ;
#81 = PRESENTATION_LAYER_ASSIGNMENT (  '', '', ( #285 ) ) ;
#82 = DIRECTION ( 'NONE',  ( 0.000000000000000000, 0.000000000000000000, -1.000000000000000000 ) ) ;
#83 = CARTESIAN_POINT ( 'NONE',  ( 0.000000000000000000, 40.72243186433527740, 0.000000000000000000 ) ) ;
#84 =( LENGTH_UNIT ( ) NAMED_UNIT ( * ) SI_UNIT ( .MILLI., .METRE. ) );
#85 = CARTESIAN_POINT ( 'NONE',  ( 0.000000000000000000, 26.66987298107781257, -18.49999999999999645 ) ) ;
#86 = ORIENTED_EDGE ( 'NONE', *, *, #69, .F. ) ;
#87 = CARTESIAN_POINT ( 'NONE',  ( 0.000000000000000000, 26.66987298107781257, 0.000000000000000000 ) ) ;
#88 = CIRCLE ( 'NONE', #1009, 16.00000000000000000 ) ;
#89 = PRODUCT_DEFINITION ( '未知', '', #774, #1072 ) ;
#90 = DIRECTION ( 'NONE',  ( 0.000000000000000000, 0.000000000000000000, -1.000000000000000000 ) ) ;
#91 = AXIS2_PLACEMENT_3D ( 'NONE', #288, #473, #747 ) ;
#92 = MECHANICAL_DESIGN_GEOMETRIC_PRESENTATION_REPRESENTATION (  '', ( #993 ), #775 ) ;
#93 = APPLICATION_CONTEXT ( 'automotive_design' ) ;
#94 = APPLICATION_PROTOCOL_DEFINITION ( 'draft international standard', 'automotive_design', 1998, #505 ) ;
#95 = CARTESIAN_POINT ( 'NONE',  ( 0.000000000000000000, 57.25833024919752035, -9.000000000000000000 ) ) ;
#96 = ORIENTED_EDGE ( 'NONE', *, *, #929, .T. ) ;
#97 = PRESENTATION_STYLE_ASSIGNMENT (( #291 ) ) ;
#98 = DIRECTION ( 'NONE',  ( 0.000000000000000000, 0.000000000000000000, -1.000000000000000000 ) ) ;
#99 = DIRECTION ( 'NONE',  ( 0.000000000000000000, 0.000000000000000000, 1.000000000000000000 ) ) ;
#100 = ORIENTED_EDGE ( 'NONE', *, *, #898, .F. ) ;
#101 = FACE_OUTER_BOUND ( 'NONE', #258, .T. ) ;
#102 = AXIS2_PLACEMENT_3D ( 'NONE', #1165, #598, #178 ) ;
#103 = DIRECTION ( 'NONE',  ( 0.000000000000000000, 0.000000000000000000, -1.000000000000000000 ) ) ;
#104 = PRODUCT_CONTEXT ( 'NONE', #1007, 'mechanical' ) ;
#105 =( GEOMETRIC_REPRESENTATION_CONTEXT ( 3 ) GLOBAL_UNCERTAINTY_ASSIGNED_CONTEXT ( ( #625 ) ) GLOBAL_UNIT_ASSIGNED_CONTEXT ( ( #399, #942, #952 ) ) REPRESENTATION_CONTEXT ( 'NONE', 'WORKASPACE' ) );
#106 = EDGE_CURVE ( 'NONE', #281, #281, #1046, .T. ) ;
#107 = ADVANCED_BREP_SHAPE_REPRESENTATION ( '', ( #784, #751 ), #1067 ) ;
#108 = CARTESIAN_POINT ( 'NONE',  ( 25.00000000000000000, 0.000000000000000000, 0.000000000000000000 ) ) ;
#109 = DIRECTION ( 'NONE',  ( 0.000000000000000000, 0.000000000000000000, -1.000000000000000000 ) ) ;
#110 = AXIS2_PLACEMENT_3D ( 'NONE', #1134, #13, #90 ) ;
#111 = DIRECTION ( 'NONE',  ( 1.000000000000000000, 0.000000000000000000, 0.000000000000000000 ) ) ;
#112 = CARTESIAN_POINT ( 'NONE',  ( 0.000000000000000000, 54.66025403784423276, 0.000000000000000000 ) ) ;
#113 = PRODUCT_RELATED_PRODUCT_CATEGORY ( 'part', '', ( #957 ) ) ;
#114 = CYLINDRICAL_SURFACE ( 'NONE', #588, 25.00000000000000000 ) ;
#115 = FACE_OUTER_BOUND ( 'NONE', #344, .T. ) ;
#116 = DIRECTION ( 'NONE',  ( 1.000000000000000000, 0.000000000000000000, 0.000000000000000000 ) ) ;
#117 = AXIS2_PLACEMENT_3D ( 'NONE', #309, #1061, #670 ) ;
#118 = ADVANCED_FACE ( 'NONE', ( #319, #134 ), #219, .T. ) ;
#119 = DIRECTION ( 'NONE',  ( -0.000000000000000000, -1.000000000000000000, -0.000000000000000000 ) ) ;
#120 = AXIS2_PLACEMENT_3D ( 'NONE', #810, #259, #1002 ) ;
#121 = ORIENTED_EDGE ( 'NONE', *, *, #466, .T. ) ;
#122 = COLOUR_RGB ( '',1.000000000000000000, 1.000000000000000000, 1.000000000000000000 ) ;
#123 = CYLINDRICAL_SURFACE ( 'NONE', #909, 18.00000000000000000 ) ;
#124 = ADVANCED_FACE ( 'NONE', ( #801, #877 ), #417, .T. ) ;
#125 = DIRECTION ( 'NONE',  ( -0.000000000000000000, -1.000000000000000000, -0.000000000000000000 ) ) ;
#126 = CIRCLE ( 'NONE', #562, 11.00000000000000000 ) ;
#127 = PRODUCT_DEFINITION_FORMATION_WITH_SPECIFIED_SOURCE ( '任何', '', #825, .NOT_KNOWN. ) ;
#128 = CARTESIAN_POINT ( 'NONE',  ( 0.000000000000000000, 69.74871130596392277, 0.000000000000000000 ) ) ;
#129 = DIRECTION ( 'NONE',  ( 0.000000000000000000, 1.000000000000000000, 0.000000000000000000 ) ) ;
#130 = DIRECTION ( 'NONE',  ( 0.000000000000000000, 0.000000000000000000, -1.000000000000000000 ) ) ;
#131 = FILL_AREA_STYLE ('',( #514 ) ) ;
#132 = AXIS2_PLACEMENT_3D ( 'NONE', #370, #842, #175 ) ;
#133 = FILL_AREA_STYLE_COLOUR ( '', #890 ) ;
#134 = FACE_BOUND ( 'NONE', #176, .T. ) ;
#135 = DIRECTION ( 'NONE',  ( 0.000000000000000000, 0.000000000000000000, -1.000000000000000000 ) ) ;
#136 = SHAPE_REPRESENTATION_RELATIONSHIP ( 'NONE' , 'NONE' ,  #330, #683 ) ;
#137 = ADVANCED_FACE ( 'NONE', ( #412, #608 ), #433, .T. ) ;
#138 = EDGE_LOOP ( 'NONE', ( #447 ) ) ;
#139 = PRESENTATION_LAYER_ASSIGNMENT (  '', '', ( #479 ) ) ;
#140 = VERTEX_POINT ( 'NONE', #517 ) ;
#141 = CYLINDRICAL_SURFACE ( 'NONE', #977, 8.999999999999998224 ) ;
#142 = CYLINDRICAL_SURFACE ( 'NONE', #867, 17.50000000000000000 ) ;
#143 = CIRCLE ( 'NONE', #989, 20.49999999999999289 ) ;
#144 = PRODUCT_RELATED_PRODUCT_CATEGORY ( 'part', '', ( #212 ) ) ;
#145 = EDGE_LOOP ( 'NONE', ( #383 ) ) ;
#146 = FACE_BOUND ( 'NONE', #290, .T. ) ;
#147 = CIRCLE ( 'NONE', #390, 8.999999999999998224 ) ;
#148 =( GEOMETRIC_REPRESENTATION_CONTEXT ( 3 ) GLOBAL_UNCERTAINTY_ASSIGNED_CONTEXT ( ( #35 ) ) GLOBAL_UNIT_ASSIGNED_CONTEXT ( ( #714, #161, #538 ) ) REPRESENTATION_CONTEXT ( 'NONE', 'WORKASPACE' ) );
#149 = VERTEX_POINT ( 'NONE', #1020 ) ;
#150 = FACE_OUTER_BOUND ( 'NONE', #45, .T. ) ;
#151 = CARTESIAN_POINT ( 'NONE',  ( 0.000000000000000000, 59.85640646055079372, 0.000000000000000000 ) ) ;
#152 = ORIENTED_EDGE ( 'NONE', *, *, #225, .F. ) ;
#153 = ADVANCED_FACE ( 'NONE', ( #520, #503 ), #42, .F. ) ;
#154 = CIRCLE ( 'NONE', #509, 10.50000000000000178 ) ;
#155 = SURFACE_STYLE_FILL_AREA ( #915 ) ;
#156 = COLOUR_RGB ( '',1.000000000000000000, 1.000000000000000000, 1.000000000000000000 ) ;
#157 = ORIENTED_EDGE ( 'NONE', *, *, #898, .T. ) ;
#158 = AXIS2_PLACEMENT_3D ( 'NONE', #404, #504, #960 ) ;
#159 = PRODUCT_DEFINITION_SHAPE ( 'NONE', 'NONE',  #389 ) ;
#160 = DIRECTION ( 'NONE',  ( 0.000000000000000000, 0.000000000000000000, -1.000000000000000000 ) ) ;
#161 =( NAMED_UNIT ( * ) PLANE_ANGLE_UNIT ( ) SI_UNIT ( $, .RADIAN. ) );
#162 = ORIENTED_EDGE ( 'NONE', *, *, #627, .F. ) ;
#163 = DIRECTION ( 'NONE',  ( -0.000000000000000000, -1.000000000000000000, -0.000000000000000000 ) ) ;
#164 = AXIS2_PLACEMENT_3D ( 'NONE', #528, #452, #1216 ) ;
#165 = EDGE_LOOP ( 'NONE', ( #193 ) ) ;
#166 = CARTESIAN_POINT ( 'NONE',  ( 0.000000000000000000, 54.16025403784421144, 11.00000000000000000 ) ) ;
#167 = EDGE_LOOP ( 'NONE', ( #815 ) ) ;
#168 = FACE_OUTER_BOUND ( 'NONE', #1119, .T. ) ;
#169 = ORIENTED_EDGE ( 'NONE', *, *, #182, .F. ) ;
#170 = FACE_OUTER_BOUND ( 'NONE', #604, .T. ) ;
#171 = FACE_BOUND ( 'NONE', #256, .T. ) ;
#172 = DIRECTION ( 'NONE',  ( -0.000000000000000000, -1.000000000000000000, -0.000000000000000000 ) ) ;
#173 = CARTESIAN_POINT ( 'NONE',  ( 0.000000000000000000, 26.00000000000000000, -19.00000000000000000 ) ) ;
#174 = EDGE_LOOP ( 'NONE', ( #516 ) ) ;
#175 = DIRECTION ( 'NONE',  ( 0.000000000000000000, 0.000000000000000000, -1.000000000000000000 ) ) ;
#176 = EDGE_LOOP ( 'NONE', ( #894 ) ) ;
#177 = CARTESIAN_POINT ( 'NONE',  ( 0.000000000000000000, 39.66025403784423276, 0.000000000000000000 ) ) ;
#178 = DIRECTION ( 'NONE',  ( 0.000000000000000000, 0.000000000000000000, -1.000000000000000000 ) ) ;
#179 = VERTEX_POINT ( 'NONE', #95 ) ;
#180 = EDGE_LOOP ( 'NONE', ( #121 ) ) ;
#181 = DIRECTION ( 'NONE',  ( -0.000000000000000000, -1.000000000000000000, -0.000000000000000000 ) ) ;
#182 = EDGE_CURVE ( 'NONE', #1095, #1095, #215, .T. ) ;
#183 = CIRCLE ( 'NONE', #1035, 11.00000000000000000 ) ;
#184 = CARTESIAN_POINT ( 'NONE',  ( 0.000000000000000000, 70.24871130596395119, 0.000000000000000000 ) ) ;
#185 = PRODUCT_CONTEXT ( 'NONE', #426, 'mechanical' ) ;
#186 = EDGE_LOOP ( 'NONE', ( #162 ) ) ;
#187 = SURFACE_STYLE_FILL_AREA ( #477 ) ;
#188 =( REPRESENTATION_RELATIONSHIP ('NONE','NONE', #372, #910 ) REPRESENTATION_RELATIONSHIP_WITH_TRANSFORMATION ( #25 )SHAPE_REPRESENTATION_RELATIONSHIP( ) );
#189 = DIRECTION ( 'NONE',  ( 0.000000000000000000, 0.000000000000000000, -1.000000000000000000 ) ) ;
#190 = EDGE_CURVE ( 'NONE', #734, #734, #234, .T. ) ;
#191 =( GEOMETRIC_REPRESENTATION_CONTEXT ( 3 ) GLOBAL_UNCERTAINTY_ASSIGNED_CONTEXT ( ( #316 ) ) GLOBAL_UNIT_ASSIGNED_CONTEXT ( ( #358, #460, #1100 ) ) REPRESENTATION_CONTEXT ( 'NONE', 'WORKASPACE' ) );
#192 = SURFACE_STYLE_USAGE ( .BOTH. , #761 ) ;
#193 = ORIENTED_EDGE ( 'NONE', *, *, #971, .F. ) ;
#194 = CARTESIAN_POINT ( 'NONE',  ( 0.000000000000000000, 26.66987298107781257, 0.000000000000000000 ) ) ;
#195 = AXIS2_PLACEMENT_3D ( 'NONE', #257, #1200, #987 ) ;
#196 = CONICAL_SURFACE ( 'NONE', #963, 11.00000000000000000, 0.7853981633974517207 ) ;
#197 = DIRECTION ( 'NONE',  ( -0.000000000000000000, -1.000000000000000000, -0.000000000000000000 ) ) ;
#198 = ADVANCED_FACE ( 'NONE', ( #201, #954 ), #114, .F. ) ;
#199 = SHAPE_DEFINITION_REPRESENTATION ( #1202, #910 ) ;
#200 = FACE_BOUND ( 'NONE', #564, .T. ) ;
#201 = FACE_OUTER_BOUND ( 'NONE', #648, .T. ) ;
#202 = FACE_OUTER_BOUND ( 'NONE', #917, .T. ) ;
#203 =( GEOMETRIC_REPRESENTATION_CONTEXT ( 3 ) GLOBAL_UNCERTAINTY_ASSIGNED_CONTEXT ( ( #874 ) ) GLOBAL_UNIT_ASSIGNED_CONTEXT ( ( #210, #355, #1196 ) ) REPRESENTATION_CONTEXT ( 'NONE', 'WORKASPACE' ) );
#204 = SURFACE_SIDE_STYLE ('',( #764 ) ) ;
#205 = DIRECTION ( 'NONE',  ( 1.000000000000000000, 0.000000000000000000, 0.000000000000000000 ) ) ;
#206 = FACE_OUTER_BOUND ( 'NONE', #841, .T. ) ;
#207 = EDGE_CURVE ( 'NONE', #179, #179, #1101, .T. ) ;
#208 = FACE_OUTER_BOUND ( 'NONE', #907, .T. ) ;
#209 = DIRECTION ( 'NONE',  ( -0.000000000000000000, -1.000000000000000000, -0.000000000000000000 ) ) ;
#210 =( LENGTH_UNIT ( ) NAMED_UNIT ( * ) SI_UNIT ( .MILLI., .METRE. ) );
#211 = ITEM_DEFINED_TRANSFORMATION ( 'NONE', 'NONE', #793,  #751 ) ;
#212 = PRODUCT ( 'Carvera吸尘转接口', 'Carvera吸尘转接口', '', ( #932 ) ) ;
#213 =( LENGTH_UNIT ( ) NAMED_UNIT ( * ) SI_UNIT ( .MILLI., .METRE. ) );
#214 = ADVANCED_FACE ( 'NONE', ( #1058, #208 ), #493, .T. ) ;
#215 = CIRCLE ( 'NONE', #279, 9.000000000000000000 ) ;
#216 = FACE_OUTER_BOUND ( 'NONE', #138, .T. ) ;
#217 = AXIS2_PLACEMENT_3D ( 'NONE', #743, #274, #1126 ) ;
#218 =( NAMED_UNIT ( * ) PLANE_ANGLE_UNIT ( ) SI_UNIT ( $, .RADIAN. ) );
#219 = PLANE ( 'NONE',  #726 ) ;
#220 = DIRECTION ( 'NONE',  ( -0.000000000000000000, -1.000000000000000000, -0.000000000000000000 ) ) ;
#221 =( NAMED_UNIT ( * ) SI_UNIT ( $, .STERADIAN. ) SOLID_ANGLE_UNIT ( ) );
#222 = DIRECTION ( 'NONE',  ( -0.000000000000000000, -1.000000000000000000, -0.000000000000000000 ) ) ;
#223 = AXIS2_PLACEMENT_3D ( 'NONE', #568, #575, #459 ) ;
#224 = CARTESIAN_POINT ( 'NONE',  ( 0.000000000000000000, 0.000000000000000000, 0.000000000000000000 ) ) ;
#225 = EDGE_CURVE ( 'NONE', #47, #47, #1063, .T. ) ;
#226 = FACE_BOUND ( 'NONE', #1005, .T. ) ;
#227 = CARTESIAN_POINT ( 'NONE',  ( 0.000000000000000000, 56.75833024919752035, 0.000000000000000000 ) ) ;
#228 = APPLICATION_CONTEXT ( 'automotive_design' ) ;
#229 =( NAMED_UNIT ( * ) PLANE_ANGLE_UNIT ( ) SI_UNIT ( $, .RADIAN. ) );
#230 = EDGE_LOOP ( 'NONE', ( #276 ) ) ;
#231 = CYLINDRICAL_SURFACE ( 'NONE', #195, 19.00000000000000000 ) ;
#232 = PRODUCT_DEFINITION_CONTEXT ( 'detailed design', #93, 'design' ) ;
#233 = VERTEX_POINT ( 'NONE', #77 ) ;
#234 = CIRCLE ( 'NONE', #76, 10.49999999999998224 ) ;
#235 = CIRCLE ( 'NONE', #903, 8.999999999999998224 ) ;
#236 = SURFACE_SIDE_STYLE ('',( #1081 ) ) ;
#237 = DIRECTION ( 'NONE',  ( 0.000000000000000000, 1.000000000000000000, 0.000000000000000000 ) ) ;
#238 = DIRECTION ( 'NONE',  ( -0.000000000000000000, -1.000000000000000000, -0.000000000000000000 ) ) ;
#239 = ADVANCED_FACE ( 'NONE', ( #1212, #721 ), #231, .F. ) ;
#240 = ORIENTED_EDGE ( 'NONE', *, *, #380, .F. ) ;
#241 = DIRECTION ( 'NONE',  ( 0.000000000000000000, 0.000000000000000000, -1.000000000000000000 ) ) ;
#242 = CARTESIAN_POINT ( 'NONE',  ( 0.000000000000000000, 55.24871130596394408, -11.00000000000000178 ) ) ;
#243 = ORIENTED_EDGE ( 'NONE', *, *, #271, .F. ) ;
#244 = DIRECTION ( 'NONE',  ( -0.000000000000000000, -1.000000000000000000, -0.000000000000000000 ) ) ;
#245 = ORIENTED_EDGE ( 'NONE', *, *, #251, .F. ) ;
#246 = DIRECTION ( 'NONE',  ( -0.000000000000000000, -1.000000000000000000, -0.000000000000000000 ) ) ;
#247 = DIRECTION ( 'NONE',  ( -0.000000000000000000, -1.000000000000000000, -0.000000000000000000 ) ) ;
#248 = SURFACE_STYLE_USAGE ( .BOTH. , #413 ) ;
#249 = CIRCLE ( 'NONE', #1070, 20.00000000000000000 ) ;
#250 = EDGE_LOOP ( 'NONE', ( #551 ) ) ;
#251 = EDGE_CURVE ( 'NONE', #846, #846, #379, .T. ) ;
#252 = PRODUCT_DEFINITION_FORMATION_WITH_SPECIFIED_SOURCE ( '任何', '', #409, .NOT_KNOWN. ) ;
#253 = AXIS2_PLACEMENT_3D ( 'NONE', #397, #294, #940 ) ;
#254 = SHAPE_REPRESENTATION ( 'Carvera吸尘器转接口-32', ( #751 ), #1067 ) ;
#255 = PRODUCT_DEFINITION_SHAPE ( 'NONE', 'NONE',  #1233 ) ;
#256 = EDGE_LOOP ( 'NONE', ( #169 ) ) ;
#257 = CARTESIAN_POINT ( 'NONE',  ( 0.000000000000000000, 0.000000000000000000, 0.000000000000000000 ) ) ;
#258 = EDGE_LOOP ( 'NONE', ( #354 ) ) ;
#259 = DIRECTION ( 'NONE',  ( -0.000000000000000000, -1.000000000000000000, -0.000000000000000000 ) ) ;
#260 = CIRCLE ( 'NONE', #120, 11.00000000000000178 ) ;
#261 = EDGE_LOOP ( 'NONE', ( #904 ) ) ;
#262 = EDGE_LOOP ( 'NONE', ( #927 ) ) ;
#263 =( GEOMETRIC_REPRESENTATION_CONTEXT ( 3 ) GLOBAL_UNCERTAINTY_ASSIGNED_CONTEXT ( ( #883 ) ) GLOBAL_UNIT_ASSIGNED_CONTEXT ( ( #700, #979, #803 ) ) REPRESENTATION_CONTEXT ( 'NONE', 'WORKASPACE' ) );
#264 = PRODUCT_DEFINITION_SHAPE ( 'NONE', 'NONE',  #1231 ) ;
#265 = DIRECTION ( 'NONE',  ( 0.000000000000000000, 0.000000000000000000, -1.000000000000000000 ) ) ;
#266 = FACE_BOUND ( 'NONE', #986, .T. ) ;
#267 = CARTESIAN_POINT ( 'NONE',  ( 0.000000000000000000, 42.25833024919752035, -11.00000000000000178 ) ) ;
#268 = ORIENTED_EDGE ( 'NONE', *, *, #207, .T. ) ;
#269 = DIRECTION ( 'NONE',  ( 0.000000000000000000, 0.000000000000000000, -1.000000000000000000 ) ) ;
#270 = MECHANICAL_DESIGN_GEOMETRIC_PRESENTATION_REPRESENTATION (  '', ( #595 ), #203 ) ;
#271 = EDGE_CURVE ( 'NONE', #1089, #1089, #154, .T. ) ;
#272 = VERTEX_POINT ( 'NONE', #983 ) ;
#273 = EDGE_LOOP ( 'NONE', ( #1211 ) ) ;
#274 = DIRECTION ( 'NONE',  ( -0.000000000000000000, -1.000000000000000000, -0.000000000000000000 ) ) ;
#275 = APPLICATION_CONTEXT ( 'automotive_design' ) ;
#276 = ORIENTED_EDGE ( 'NONE', *, *, #1018, .T. ) ;
#277 = DIRECTION ( 'NONE',  ( 0.000000000000000000, 0.000000000000000000, -1.000000000000000000 ) ) ;
#278 = CARTESIAN_POINT ( 'NONE',  ( 16.00000000000000000, 0.000000000000000000, 0.000000000000000000 ) ) ;
#279 = AXIS2_PLACEMENT_3D ( 'NONE', #443, #594, #959 ) ;
#280 = ADVANCED_FACE ( 'NONE', ( #913, #146 ), #1209, .F. ) ;
#281 = VERTEX_POINT ( 'NONE', #469 ) ;
#282 = CONICAL_SURFACE ( 'NONE', #439, 8.999999999999998224, 0.5235987755983042558 ) ;
#283 = ORIENTED_EDGE ( 'NONE', *, *, #69, .T. ) ;
#284 =( NAMED_UNIT ( * ) SI_UNIT ( $, .STERADIAN. ) SOLID_ANGLE_UNIT ( ) );
#285 = STYLED_ITEM ( 'NONE', ( #1017 ), #789 ) ;
#286 = DIRECTION ( 'NONE',  ( -0.000000000000000000, -1.000000000000000000, -0.000000000000000000 ) ) ;
#287 = CIRCLE ( 'NONE', #408, 27.49999999999999645 ) ;
#288 = CARTESIAN_POINT ( 'NONE',  ( 232.8231315404991619, -25.49871851952964619, 55.09326673973644972 ) ) ;
#289 = FILL_AREA_STYLE ('',( #857 ) ) ;
#290 = EDGE_LOOP ( 'NONE', ( #1087 ) ) ;
#291 = SURFACE_STYLE_USAGE ( .BOTH. , #565 ) ;
#292 = ADVANCED_FACE ( 'NONE', ( #51, #605 ), #437, .T. ) ;
#293 = DIRECTION ( 'NONE',  ( -0.000000000000000000, -1.000000000000000000, -0.000000000000000000 ) ) ;
#294 = DIRECTION ( 'NONE',  ( -0.000000000000000000, -1.000000000000000000, -0.000000000000000000 ) ) ;
#295 = CARTESIAN_POINT ( 'NONE',  ( 39.16853645131359229, -25.49871851952964974, 55.09326673973644972 ) ) ;
#296 = VERTEX_POINT ( 'NONE', #665 ) ;
#297 = ORIENTED_EDGE ( 'NONE', *, *, #584, .F. ) ;
#298 = CARTESIAN_POINT ( 'NONE',  ( 0.000000000000000000, 26.66987298107780546, 0.000000000000000000 ) ) ;
#299 = FACE_BOUND ( 'NONE', #624, .T. ) ;
#300 = CARTESIAN_POINT ( 'NONE',  ( 17.50000000000000000, 0.000000000000000000, 0.000000000000000000 ) ) ;
#301 = APPLICATION_CONTEXT ( 'automotive_design' ) ;
#302 = AXIS2_PLACEMENT_3D ( 'NONE', #756, #918, #456 ) ;
#303 = CARTESIAN_POINT ( 'NONE',  ( 0.000000000000000000, 54.66025403784423276, 0.000000000000000000 ) ) ;
#304 = ITEM_DEFINED_TRANSFORMATION ( 'NONE', 'NONE', #10,  #751 ) ;
#305 = MECHANICAL_DESIGN_GEOMETRIC_PRESENTATION_REPRESENTATION (  '', ( #668 ), #814 ) ;
#306 = CARTESIAN_POINT ( 'NONE',  ( 0.000000000000000000, 0.000000000000000000, -16.00000000000000000 ) ) ;
#307 = DIRECTION ( 'NONE',  ( -0.000000000000000000, -1.000000000000000000, -0.000000000000000000 ) ) ;
#308 = PRODUCT_DEFINITION_SHAPE ( 'NONE', 'NONE',  #567 ) ;
#309 = CARTESIAN_POINT ( 'NONE',  ( 0.000000000000000000, 57.25833024919752035, 0.000000000000000000 ) ) ;
#310 = CIRCLE ( 'NONE', #518, 27.50000000000000000 ) ;
#311 = CARTESIAN_POINT ( 'NONE',  ( 0.000000000000000000, 59.85640646055079372, 10.49999999999999467 ) ) ;
#312 = SURFACE_SIDE_STYLE ('',( #488 ) ) ;
#313 = DIRECTION ( 'NONE',  ( 0.000000000000000000, 0.000000000000000000, 1.000000000000000000 ) ) ;
#314 = PRODUCT_DEFINITION ( '未知', '', #688, #600 ) ;
#315 = VERTEX_POINT ( 'NONE', #15 ) ;
#316 = UNCERTAINTY_MEASURE_WITH_UNIT (LENGTH_MEASURE( 1.000000000000000082E-05 ), #358, 'distance_accuracy_value', 'NONE');
#317 = VERTEX_POINT ( 'NONE', #891 ) ;
#318 = SURFACE_STYLE_USAGE ( .BOTH. , #312 ) ;
#319 = FACE_OUTER_BOUND ( 'NONE', #735, .T. ) ;
#320 = AXIS2_PLACEMENT_3D ( 'NONE', #71, #360, #1079 ) ;
#321 = DIRECTION ( 'NONE',  ( -0.000000000000000000, -1.000000000000000000, -0.000000000000000000 ) ) ;
#322 =( GEOMETRIC_REPRESENTATION_CONTEXT ( 3 ) GLOBAL_UNCERTAINTY_ASSIGNED_CONTEXT ( ( #60 ) ) GLOBAL_UNIT_ASSIGNED_CONTEXT ( ( #1055, #229, #435 ) ) REPRESENTATION_CONTEXT ( 'NONE', 'WORKASPACE' ) );
#323 = PRODUCT_DEFINITION_CONTEXT ( 'detailed design', #228, 'design' ) ;
#324 = ADVANCED_FACE ( 'NONE', ( #902, #59 ), #655, .F. ) ;
#325 = CYLINDRICAL_SURFACE ( 'NONE', #1003, 9.000000000000000000 ) ;
#326 = DIRECTION ( 'NONE',  ( -0.000000000000000000, -1.000000000000000000, -0.000000000000000000 ) ) ;
#327 = DIRECTION ( 'NONE',  ( 0.000000000000000000, 0.000000000000000000, -1.000000000000000000 ) ) ;
#328 = CIRCLE ( 'NONE', #1054, 17.50000000000000000 ) ;
#329 =( NAMED_UNIT ( * ) SI_UNIT ( $, .STERADIAN. ) SOLID_ANGLE_UNIT ( ) );
#330 = SHAPE_REPRESENTATION ( 'Carvera吸尘器转接口-35', ( #751 ), #322 ) ;
#331 = DIRECTION ( 'NONE',  ( 0.000000000000000000, 1.000000000000000000, 0.000000000000000000 ) ) ;
#332 = VERTEX_POINT ( 'NONE', #741 ) ;
#333 = DIRECTION ( 'NONE',  ( 0.000000000000000000, -0.000000000000000000, 1.000000000000000000 ) ) ;
#334 = DIRECTION ( 'NONE',  ( 0.000000000000000000, 0.000000000000000000, -1.000000000000000000 ) ) ;
#335 = EDGE_LOOP ( 'NONE', ( #86 ) ) ;
#336 = CARTESIAN_POINT ( 'NONE',  ( 0.000000000000000000, 0.000000000000000000, -18.00000000000000000 ) ) ;
#337 = CIRCLE ( 'NONE', #420, 17.50000000000000000 ) ;
#338 = CIRCLE ( 'NONE', #628, 10.49999999999998934 ) ;
#339 = CARTESIAN_POINT ( 'NONE',  ( 0.000000000000000000, 0.000000000000000000, 0.000000000000000000 ) ) ;
#340 = FACE_OUTER_BOUND ( 'NONE', #914, .T. ) ;
#341 = EDGE_CURVE ( 'NONE', #52, #52, #829, .T. ) ;
#342 = FILL_AREA_STYLE_COLOUR ( '', #122 ) ;
#343 = DIRECTION ( 'NONE',  ( -0.000000000000000000, -1.000000000000000000, -0.000000000000000000 ) ) ;
#344 = EDGE_LOOP ( 'NONE', ( #1105 ) ) ;
#345 = DIRECTION ( 'NONE',  ( 0.000000000000000000, 0.000000000000000000, -1.000000000000000000 ) ) ;
#346 = VERTEX_POINT ( 'NONE', #242 ) ;
#347 = ORIENTED_EDGE ( 'NONE', *, *, #12, .T. ) ;
#348 = FACE_OUTER_BOUND ( 'NONE', #1185, .T. ) ;
#349 = AXIS2_PLACEMENT_3D ( 'NONE', #303, #837, #82 ) ;
#350 = ORIENTED_EDGE ( 'NONE', *, *, #777, .F. ) ;
#351 = ORIENTED_EDGE ( 'NONE', *, *, #1018, .F. ) ;
#352 = DIRECTION ( 'NONE',  ( -0.000000000000000000, -1.000000000000000000, -0.000000000000000000 ) ) ;
#353 = ORIENTED_EDGE ( 'NONE', *, *, #758, .T. ) ;
#354 = ORIENTED_EDGE ( 'NONE', *, *, #997, .F. ) ;
#355 =( NAMED_UNIT ( * ) PLANE_ANGLE_UNIT ( ) SI_UNIT ( $, .RADIAN. ) );
#356 = FACE_OUTER_BOUND ( 'NONE', #1111, .T. ) ;
#357 = CARTESIAN_POINT ( 'NONE',  ( 0.000000000000000000, 26.66987298107781257, 0.000000000000000000 ) ) ;
#358 =( LENGTH_UNIT ( ) NAMED_UNIT ( * ) SI_UNIT ( .MILLI., .METRE. ) );
#359 = ORIENTED_EDGE ( 'NONE', *, *, #341, .F. ) ;
#360 = DIRECTION ( 'NONE',  ( -0.000000000000000000, -1.000000000000000000, -0.000000000000000000 ) ) ;
#361 = APPLICATION_CONTEXT ( 'automotive_design' ) ;
#362 = ORIENTED_EDGE ( 'NONE', *, *, #821, .F. ) ;
#363 = PRESENTATION_LAYER_ASSIGNMENT (  '', '', ( #668 ) ) ;
#364 = ADVANCED_FACE ( 'NONE', ( #1039, #834 ), #919, .T. ) ;
#365 = CARTESIAN_POINT ( 'NONE',  ( 0.000000000000000000, 43.12435565298193296, 0.000000000000000000 ) ) ;
#366 = DIRECTION ( 'NONE',  ( 0.000000000000000000, 0.000000000000000000, -1.000000000000000000 ) ) ;
#367 = FILL_AREA_STYLE ('',( #633 ) ) ;
#368 = CARTESIAN_POINT ( 'NONE',  ( 0.000000000000000000, 69.74871130596392277, 11.00000000000000000 ) ) ;
#369 = ORIENTED_EDGE ( 'NONE', *, *, #790, .F. ) ;
#370 = CARTESIAN_POINT ( 'NONE',  ( 0.000000000000000000, 0.000000000000000000, 0.000000000000000000 ) ) ;
#371 = EDGE_LOOP ( 'NONE', ( #476 ) ) ;
#372 = SHAPE_REPRESENTATION ( 'Carvera吸尘转接口', ( #992, #10, #445, #581, #793, #91 ), #1071 ) ;
#373 = ADVANCED_FACE ( 'NONE', ( #1229, #101 ), #1166, .T. ) ;
#374 = VERTEX_POINT ( 'NONE', #438 ) ;
#375 = EDGE_LOOP ( 'NONE', ( #157 ) ) ;
#376 = CARTESIAN_POINT ( 'NONE',  ( 0.000000000000000000, 0.000000000000000000, 0.000000000000000000 ) ) ;
#377 = DIRECTION ( 'NONE',  ( -0.000000000000000000, -1.000000000000000000, -0.000000000000000000 ) ) ;
#378 = PRODUCT_CONTEXT ( 'NONE', #1163, 'mechanical' ) ;
#379 = CIRCLE ( 'NONE', #679, 21.49999999999999645 ) ;
#380 = EDGE_CURVE ( 'NONE', #374, #374, #19, .T. ) ;
#381 = CARTESIAN_POINT ( 'NONE',  ( 0.000000000000000000, 26.66987298107780191, -27.49999999999999645 ) ) ;
#382 = AXIS2_PLACEMENT_3D ( 'NONE', #936, #1112, #269 ) ;
#383 = ORIENTED_EDGE ( 'NONE', *, *, #863, .F. ) ;
#384 = DIRECTION ( 'NONE',  ( 0.000000000000000000, 0.000000000000000000, -1.000000000000000000 ) ) ;
#385 = DIRECTION ( 'NONE',  ( 0.000000000000000000, 0.000000000000000000, 1.000000000000000000 ) ) ;
#386 = CONICAL_SURFACE ( 'NONE', #158, 11.00000000000000000, 0.7853981633974517207 ) ;
#387 = SHAPE_DEFINITION_REPRESENTATION ( #1004, #330 ) ;
#388 = EDGE_LOOP ( 'NONE', ( #1203 ) ) ;
#389 = PRODUCT_DEFINITION ( '未知', '', #1011, #1088 ) ;
#390 = AXIS2_PLACEMENT_3D ( 'NONE', #554, #352, #730 ) ;
#391 = CYLINDRICAL_SURFACE ( 'NONE', #67, 11.00000000000000000 ) ;
#392 = CONICAL_SURFACE ( 'NONE', #757, 18.49999999999999645, 0.5235987755983039227 ) ;
#393 = CARTESIAN_POINT ( 'NONE',  ( 0.000000000000000000, 54.66025403784423276, -9.000000000000000000 ) ) ;
#394 = FACE_BOUND ( 'NONE', #50, .T. ) ;
#395 = DIRECTION ( 'NONE',  ( 0.000000000000000000, 0.000000000000000000, 1.000000000000000000 ) ) ;
#396 = MANIFOLD_SOLID_BREP ( '倒角1', #535 ) ;
#397 = CARTESIAN_POINT ( 'NONE',  ( 0.000000000000000000, 57.62435565298193296, 0.000000000000000000 ) ) ;
#398 = DIRECTION ( 'NONE',  ( 1.000000000000000000, 0.000000000000000000, 0.000000000000000000 ) ) ;
#399 =( LENGTH_UNIT ( ) NAMED_UNIT ( * ) SI_UNIT ( .MILLI., .METRE. ) );
#400 = DIRECTION ( 'NONE',  ( 0.000000000000000000, 0.000000000000000000, -1.000000000000000000 ) ) ;
#401 = AXIS2_PLACEMENT_3D ( 'NONE', #948, #1138, #854 ) ;
#402 = CONICAL_SURFACE ( 'NONE', #1000, 8.999999999999998224, 0.5235987755983042558 ) ;
#403 = DIRECTION ( 'NONE',  ( -0.000000000000000000, -1.000000000000000000, -0.000000000000000000 ) ) ;
#404 = CARTESIAN_POINT ( 'NONE',  ( 0.000000000000000000, 59.35640646055079372, 0.000000000000000000 ) ) ;
#405 = ADVANCED_FACE ( 'NONE', ( #1032, #729 ), #945, .T. ) ;
#406 = COLOUR_RGB ( '',1.000000000000000000, 1.000000000000000000, 1.000000000000000000 ) ;
#407 =( NAMED_UNIT ( * ) SI_UNIT ( $, .STERADIAN. ) SOLID_ANGLE_UNIT ( ) );
#408 = AXIS2_PLACEMENT_3D ( 'NONE', #601, #415, #969 ) ;
#409 = PRODUCT ( 'Carvera吸尘器转接口-50', 'Carvera吸尘器转接口-50', '', ( #104 ) ) ;
#410 = CYLINDRICAL_SURFACE ( 'NONE', #62, 8.999999999999998224 ) ;
#411 = ADVANCED_FACE ( 'NONE', ( #928, #1045 ), #573, .T. ) ;
#412 = FACE_OUTER_BOUND ( 'NONE', #742, .T. ) ;
#413 = SURFACE_SIDE_STYLE ('',( #787 ) ) ;
#414 = UNCERTAINTY_MEASURE_WITH_UNIT (LENGTH_MEASURE( 1.000000000000000082E-05 ), #84, 'distance_accuracy_value', 'NONE');
#415 = DIRECTION ( 'NONE',  ( -0.000000000000000000, -1.000000000000000000, -0.000000000000000000 ) ) ;
#416 = DIRECTION ( 'NONE',  ( 0.000000000000000000, 0.000000000000000000, 1.000000000000000000 ) ) ;
#417 = CYLINDRICAL_SURFACE ( 'NONE', #865, 11.00000000000000000 ) ;
#418 =( LENGTH_UNIT ( ) NAMED_UNIT ( * ) SI_UNIT ( .MILLI., .METRE. ) );
#419 = EDGE_CURVE ( 'NONE', #462, #462, #807, .T. ) ;
#420 = AXIS2_PLACEMENT_3D ( 'NONE', #38, #125, #529 ) ;
#421 = FACE_OUTER_BOUND ( 'NONE', #167, .T. ) ;
#422 = CARTESIAN_POINT ( 'NONE',  ( 18.00000000000000000, 0.000000000000000000, 0.000000000000000000 ) ) ;
#423 = FACE_OUTER_BOUND ( 'NONE', #642, .T. ) ;
#424 = ADVANCED_FACE ( 'NONE', ( #637, #168 ), #510, .T. ) ;
#425 = UNCERTAINTY_MEASURE_WITH_UNIT (LENGTH_MEASURE( 1.000000000000000082E-05 ), #1141, 'distance_accuracy_value', 'NONE');
#426 = APPLICATION_CONTEXT ( 'automotive_design' ) ;
#427 = DIRECTION ( 'NONE',  ( 0.000000000000000000, 1.000000000000000000, 0.000000000000000000 ) ) ;
#428 = CARTESIAN_POINT ( 'NONE',  ( 19.00000000000000000, 0.000000000000000000, 0.000000000000000000 ) ) ;
#429 = AXIS2_PLACEMENT_3D ( 'NONE', #365, #1107, #632 ) ;
#430 = ORIENTED_EDGE ( 'NONE', *, *, #620, .T. ) ;
#431 = VERTEX_POINT ( 'NONE', #1013 ) ;
#432 = EDGE_CURVE ( 'NONE', #1030, #1030, #1210, .T. ) ;
#433 = PLANE ( 'NONE',  #1182 ) ;
#434 = CARTESIAN_POINT ( 'NONE',  ( 0.000000000000000000, 41.58845726811970422, 0.000000000000000000 ) ) ;
#435 =( NAMED_UNIT ( * ) SI_UNIT ( $, .STERADIAN. ) SOLID_ANGLE_UNIT ( ) );
#436 = EDGE_LOOP ( 'NONE', ( #70 ) ) ;
#437 = CYLINDRICAL_SURFACE ( 'NONE', #881, 11.00000000000000000 ) ;
#438 = CARTESIAN_POINT ( 'NONE',  ( 0.000000000000000000, 0.000000000000000000, -21.50000000000000000 ) ) ;
#439 = AXIS2_PLACEMENT_3D ( 'NONE', #56, #73, #160 ) ;
#440 = MECHANICAL_DESIGN_GEOMETRIC_PRESENTATION_REPRESENTATION (  '', ( #285 ), #148 ) ;
#441 = EDGE_LOOP ( 'NONE', ( #654 ) ) ;
#442 = STYLED_ITEM ( 'NONE', ( #653 ), #107 ) ;
#443 = CARTESIAN_POINT ( 'NONE',  ( 0.000000000000000000, 40.72243186433527740, 0.000000000000000000 ) ) ;
#444 = CIRCLE ( 'NONE', #28, 11.00000000000000000 ) ;
#445 = AXIS2_PLACEMENT_3D ( 'NONE', #295, #851, #577 ) ;
#446 = EDGE_LOOP ( 'NONE', ( #100 ) ) ;
#447 = ORIENTED_EDGE ( 'NONE', *, *, #494, .T. ) ;
#448 = PRODUCT ( 'Carvera吸尘器转接口-32', 'Carvera吸尘器转接口-32', '', ( #1135 ) ) ;
#449 = EDGE_LOOP ( 'NONE', ( #430 ) ) ;
#450 = EDGE_CURVE ( 'NONE', #1219, #1219, #727, .T. ) ;
#451 = EDGE_LOOP ( 'NONE', ( #822 ) ) ;
#452 = DIRECTION ( 'NONE',  ( 0.000000000000000000, 1.000000000000000000, 0.000000000000000000 ) ) ;
#453 = AXIS2_PLACEMENT_3D ( 'NONE', #1174, #222, #602 ) ;
#454 = CARTESIAN_POINT ( 'NONE',  ( 0.000000000000000000, 41.58845726811970422, -8.999999999999998224 ) ) ;
#455 = EDGE_LOOP ( 'NONE', ( #152 ) ) ;
#456 = DIRECTION ( 'NONE',  ( 0.000000000000000000, 0.000000000000000000, -1.000000000000000000 ) ) ;
#457 = UNCERTAINTY_MEASURE_WITH_UNIT (LENGTH_MEASURE( 1.000000000000000082E-05 ), #689, 'distance_accuracy_value', 'NONE');
#458 = ADVANCED_FACE ( 'NONE', ( #643, #1150 ), #142, .F. ) ;
#459 = DIRECTION ( 'NONE',  ( 0.000000000000000000, -0.000000000000000000, 1.000000000000000000 ) ) ;
#460 =( NAMED_UNIT ( * ) PLANE_ANGLE_UNIT ( ) SI_UNIT ( $, .RADIAN. ) );
#461 = CIRCLE ( 'NONE', #500, 18.50000000000000000 ) ;
#462 = VERTEX_POINT ( 'NONE', #336 ) ;
#463 = ORIENTED_EDGE ( 'NONE', *, *, #1060, .T. ) ;
#464 = DIRECTION ( 'NONE',  ( -0.000000000000000000, -1.000000000000000000, -0.000000000000000000 ) ) ;
#465 = PLANE ( 'NONE',  #713 ) ;
#466 = EDGE_CURVE ( 'NONE', #563, #563, #475, .T. ) ;
#467 =( LENGTH_UNIT ( ) NAMED_UNIT ( * ) SI_UNIT ( .MILLI., .METRE. ) );
#468 = SHAPE_DEFINITION_REPRESENTATION ( #308, #372 ) ;
#469 = CARTESIAN_POINT ( 'NONE',  ( 0.000000000000000000, 57.25833024919752035, 10.49999999999999467 ) ) ;
#470 = EDGE_LOOP ( 'NONE', ( #545 ) ) ;
#471 = DIRECTION ( 'NONE',  ( 0.000000000000000000, 0.000000000000000000, -1.000000000000000000 ) ) ;
#472 = STYLED_ITEM ( 'NONE', ( #1029 ), #574 ) ;
#473 = DIRECTION ( 'NONE',  ( 0.000000000000000000, 0.000000000000000000, 1.000000000000000000 ) ) ;
#474 = AXIS2_PLACEMENT_3D ( 'NONE', #422, #27, #994 ) ;
#475 = CIRCLE ( 'NONE', #1065, 11.00000000000000178 ) ;
#476 = ORIENTED_EDGE ( 'NONE', *, *, #1012, .T. ) ;
#477 = FILL_AREA_STYLE ('',( #750 ) ) ;
#478 = DIRECTION ( 'NONE',  ( -0.000000000000000000, -1.000000000000000000, -0.000000000000000000 ) ) ;
#479 = STYLED_ITEM ( 'NONE', ( #1069 ), #683 ) ;
#480 = ITEM_DEFINED_TRANSFORMATION ( 'NONE', 'NONE', #445,  #751 ) ;
#481 = DIRECTION ( 'NONE',  ( 0.000000000000000000, 0.000000000000000000, -1.000000000000000000 ) ) ;
#482 = AXIS2_PLACEMENT_3D ( 'NONE', #6, #286, #471 ) ;
#483 = DIRECTION ( 'NONE',  ( 0.000000000000000000, 0.000000000000000000, -1.000000000000000000 ) ) ;
#484 = DIRECTION ( 'NONE',  ( 0.000000000000000000, 0.000000000000000000, -1.000000000000000000 ) ) ;
#485 = CARTESIAN_POINT ( 'NONE',  ( 0.000000000000000000, 0.000000000000000000, 0.000000000000000000 ) ) ;
#486 = CARTESIAN_POINT ( 'NONE',  ( 0.000000000000000000, 0.000000000000000000, 0.000000000000000000 ) ) ;
#487 = FACE_OUTER_BOUND ( 'NONE', #853, .T. ) ;
#488 = SURFACE_STYLE_FILL_AREA ( #24 ) ;
#489 = CARTESIAN_POINT ( 'NONE',  ( 165.6366524839540944, -25.49871851952964619, 55.09326673973644972 ) ) ;
#490 = CARTESIAN_POINT ( 'NONE',  ( 0.000000000000000000, 0.000000000000000000, -18.50000000000000000 ) ) ;
#491 = AXIS2_PLACEMENT_3D ( 'NONE', #698, #326, #690 ) ;
#492 = AXIS2_PLACEMENT_3D ( 'NONE', #80, #736, #484 ) ;
#493 = CYLINDRICAL_SURFACE ( 'NONE', #961, 20.49999999999999645 ) ;
#494 = EDGE_CURVE ( 'NONE', #934, #934, #1213, .T. ) ;
#495 =( NAMED_UNIT ( * ) SI_UNIT ( $, .STERADIAN. ) SOLID_ANGLE_UNIT ( ) );
#496 =( GEOMETRIC_REPRESENTATION_CONTEXT ( 3 ) GLOBAL_UNCERTAINTY_ASSIGNED_CONTEXT ( ( #414 ) ) GLOBAL_UNIT_ASSIGNED_CONTEXT ( ( #84, #75, #924 ) ) REPRESENTATION_CONTEXT ( 'NONE', 'WORKASPACE' ) );
#497 = EDGE_LOOP ( 'NONE', ( #1194 ) ) ;
#498 = COLOUR_RGB ( '',1.000000000000000000, 1.000000000000000000, 1.000000000000000000 ) ;
#499 =( NAMED_UNIT ( * ) SI_UNIT ( $, .STERADIAN. ) SOLID_ANGLE_UNIT ( ) );
#500 = AXIS2_PLACEMENT_3D ( 'NONE', #849, #645, #1026 ) ;
#501 = FACE_OUTER_BOUND ( 'NONE', #549, .T. ) ;
#502 = ADVANCED_FACE ( 'NONE', ( #618, #699 ), #402, .F. ) ;
#503 = FACE_OUTER_BOUND ( 'NONE', #570, .T. ) ;
#504 = DIRECTION ( 'NONE',  ( -0.000000000000000000, -1.000000000000000000, -0.000000000000000000 ) ) ;
#505 = APPLICATION_CONTEXT ( 'automotive_design' ) ;
#506 = CONTEXT_DEPENDENT_SHAPE_REPRESENTATION ( #906, #72 ) ;
#507 = DIRECTION ( 'NONE',  ( -0.000000000000000000, -1.000000000000000000, -0.000000000000000000 ) ) ;
#508 = CARTESIAN_POINT ( 'NONE',  ( 0.000000000000000000, 38.12435565298199691, 0.000000000000000000 ) ) ;
#509 = AXIS2_PLACEMENT_3D ( 'NONE', #895, #546, #532 ) ;
#510 = CONICAL_SURFACE ( 'NONE', #492, 11.00000000000000000, 0.7853981633974517207 ) ;
#511 = AXIS2_PLACEMENT_3D ( 'NONE', #298, #858, #384 ) ;
#512 = CYLINDRICAL_SURFACE ( 'NONE', #804, 27.49999999999999645 ) ;
#513 = CARTESIAN_POINT ( 'NONE',  ( 0.000000000000000000, 0.000000000000000000, 0.000000000000000000 ) ) ;
#514 = FILL_AREA_STYLE_COLOUR ( '', #498 ) ;
#515 = COLOUR_RGB ( '',1.000000000000000000, 1.000000000000000000, 1.000000000000000000 ) ;
#516 = ORIENTED_EDGE ( 'NONE', *, *, #450, .F. ) ;
#517 = CARTESIAN_POINT ( 'NONE',  ( 0.000000000000000000, 43.12435565298193296, -11.00000000000000178 ) ) ;
#518 = AXIS2_PLACEMENT_3D ( 'NONE', #1120, #377, #277 ) ;
#519 = DIRECTION ( 'NONE',  ( 0.000000000000000000, 0.000000000000000000, -1.000000000000000000 ) ) ;
#520 = FACE_OUTER_BOUND ( 'NONE', #388, .T. ) ;
#521 = FACE_OUTER_BOUND ( 'NONE', #61, .T. ) ;
#522 = CIRCLE ( 'NONE', #429, 11.00000000000000178 ) ;
#523 = CONICAL_SURFACE ( 'NONE', #671, 27.49999999999999645, 0.5235987755983038117 ) ;
#524 = CIRCLE ( 'NONE', #1096, 19.00000000000000000 ) ;
#525 = ORIENTED_EDGE ( 'NONE', *, *, #882, .F. ) ;
#526 = ADVANCED_FACE ( 'NONE', ( #340, #886 ), #862, .T. ) ;
#527 = CARTESIAN_POINT ( 'NONE',  ( 0.000000000000000000, 0.000000000000000000, -25.00000000000000000 ) ) ;
#528 = CARTESIAN_POINT ( 'NONE',  ( 9.000000000000000000, 57.25833024919752035, 0.000000000000000000 ) ) ;
#529 = DIRECTION ( 'NONE',  ( 0.000000000000000000, 0.000000000000000000, -1.000000000000000000 ) ) ;
#530 = DIRECTION ( 'NONE',  ( 0.000000000000000000, 0.000000000000000000, -1.000000000000000000 ) ) ;
#531 = ORIENTED_EDGE ( 'NONE', *, *, #12, .F. ) ;
#532 = DIRECTION ( 'NONE',  ( 0.000000000000000000, 0.000000000000000000, 1.000000000000000000 ) ) ;
#533 = UNCERTAINTY_MEASURE_WITH_UNIT (LENGTH_MEASURE( 1.000000000000000082E-05 ), #467, 'distance_accuracy_value', 'NONE');
#534 = EDGE_LOOP ( 'NONE', ( #702 ) ) ;
#535 = CLOSED_SHELL ( 'NONE', ( #1147, #502, #611, #1106, #1179, #373, #214, #46, #770 ) ) ;
#536 = CONICAL_SURFACE ( 'NONE', #606, 9.000000000000000000, 0.5235987755983041447 ) ;
#537 = CYLINDRICAL_SURFACE ( 'NONE', #732, 18.49999999999999645 ) ;
#538 =( NAMED_UNIT ( * ) SI_UNIT ( $, .STERADIAN. ) SOLID_ANGLE_UNIT ( ) );
#539 = ORIENTED_EDGE ( 'NONE', *, *, #1168, .F. ) ;
#540 = ORIENTED_EDGE ( 'NONE', *, *, #190, .T. ) ;
#541 = DIRECTION ( 'NONE',  ( 0.000000000000000000, 0.000000000000000000, -1.000000000000000000 ) ) ;
#542 = ADVANCED_FACE ( 'NONE', ( #43, #521 ), #196, .T. ) ;
#543 =( GEOMETRIC_REPRESENTATION_CONTEXT ( 3 ) GLOBAL_UNCERTAINTY_ASSIGNED_CONTEXT ( ( #457 ) ) GLOBAL_UNIT_ASSIGNED_CONTEXT ( ( #689, #218, #677 ) ) REPRESENTATION_CONTEXT ( 'NONE', 'WORKASPACE' ) );
#544 = PRODUCT_DEFINITION_FORMATION_WITH_SPECIFIED_SOURCE ( '任何', '', #212, .NOT_KNOWN. ) ;
#545 = ORIENTED_EDGE ( 'NONE', *, *, #64, .T. ) ;
#546 = DIRECTION ( 'NONE',  ( 0.000000000000000000, 1.000000000000000000, 0.000000000000000000 ) ) ;
#547 = ORIENTED_EDGE ( 'NONE', *, *, #597, .T. ) ;
#548 = CARTESIAN_POINT ( 'NONE',  ( 0.000000000000000000, 43.32050807568855788, -8.999999999999998224 ) ) ;
#549 = EDGE_LOOP ( 'NONE', ( #991 ) ) ;
#550 = DIRECTION ( 'NONE',  ( -0.000000000000000000, -1.000000000000000000, -0.000000000000000000 ) ) ;
#551 = ORIENTED_EDGE ( 'NONE', *, *, #627, .T. ) ;
#552 = PLANE ( 'NONE',  #223 ) ;
#553 = CIRCLE ( 'NONE', #17, 10.49999999999999467 ) ;
#554 = CARTESIAN_POINT ( 'NONE',  ( 0.000000000000000000, 43.32050807568855788, 0.000000000000000000 ) ) ;
#555 = SHAPE_REPRESENTATION_RELATIONSHIP ( 'NONE' , 'NONE' ,  #947, #574 ) ;
#556 = VERTEX_POINT ( 'NONE', #166 ) ;
#557 = EDGE_LOOP ( 'NONE', ( #96 ) ) ;
#558 = ADVANCED_FACE ( 'NONE', ( #1175, #893 ), #953, .T. ) ;
#559 =( GEOMETRIC_REPRESENTATION_CONTEXT ( 3 ) GLOBAL_UNCERTAINTY_ASSIGNED_CONTEXT ( ( #710 ) ) GLOBAL_UNIT_ASSIGNED_CONTEXT ( ( #876, #40, #495 ) ) REPRESENTATION_CONTEXT ( 'NONE', 'WORKASPACE' ) );
#560 = DIRECTION ( 'NONE',  ( -0.000000000000000000, -1.000000000000000000, -0.000000000000000000 ) ) ;
#561 = APPLICATION_PROTOCOL_DEFINITION ( 'draft international standard', 'automotive_design', 1998, #275 ) ;
#562 = AXIS2_PLACEMENT_3D ( 'NONE', #745, #922, #395 ) ;
#563 = VERTEX_POINT ( 'NONE', #267 ) ;
#564 = EDGE_LOOP ( 'NONE', ( #539 ) ) ;
#565 = SURFACE_SIDE_STYLE ('',( #187 ) ) ;
#566 = CONICAL_SURFACE ( 'NONE', #253, 11.00000000000000000, 0.7853981633974447263 ) ;
#567 = PRODUCT_DEFINITION ( '未知', '', #544, #782 ) ;
#568 = CARTESIAN_POINT ( 'NONE',  ( 8.999999999999998224, 58.12435565298193296, 0.000000000000000000 ) ) ;
#569 =( NAMED_UNIT ( * ) PLANE_ANGLE_UNIT ( ) SI_UNIT ( $, .RADIAN. ) );
#570 = EDGE_LOOP ( 'NONE', ( #351 ) ) ;
#571 = FACE_BOUND ( 'NONE', #449, .T. ) ;
#572 = AXIS2_PLACEMENT_3D ( 'NONE', #613, #823, #1006 ) ;
#573 = PLANE ( 'NONE',  #703 ) ;
#574 = ADVANCED_BREP_SHAPE_REPRESENTATION ( '', ( #798, #751 ), #667 ) ;
#575 = DIRECTION ( 'NONE',  ( 0.000000000000000000, 1.000000000000000000, 0.000000000000000000 ) ) ;
#576 = CARTESIAN_POINT ( 'NONE',  ( 0.000000000000000000, 0.000000000000000000, 0.000000000000000000 ) ) ;
#577 = DIRECTION ( 'NONE',  ( 1.000000000000000000, 0.000000000000000000, 0.000000000000000000 ) ) ;
#578 = DIRECTION ( 'NONE',  ( 0.000000000000000000, 0.000000000000000000, -1.000000000000000000 ) ) ;
#579 = CIRCLE ( 'NONE', #634, 8.999999999999998224 ) ;
#580 = CARTESIAN_POINT ( 'NONE',  ( 0.000000000000000000, 0.000000000000000000, 0.000000000000000000 ) ) ;
#581 = AXIS2_PLACEMENT_3D ( 'NONE', #951, #1053, #111 ) ;
#582 = SURFACE_STYLE_USAGE ( .BOTH. , #204 ) ;
#583 = CARTESIAN_POINT ( 'NONE',  ( -14.64041254709857398, -25.49871851952964974, 55.09326673973644972 ) ) ;
#584 = EDGE_CURVE ( 'NONE', #332, #332, #338, .T. ) ;
#585 = PRODUCT_DEFINITION_SHAPE ( 'NONE', 'NONE',  #89 ) ;
#586 = VERTEX_POINT ( 'NONE', #22 ) ;
#587 = ORIENTED_EDGE ( 'NONE', *, *, #821, .T. ) ;
#588 = AXIS2_PLACEMENT_3D ( 'NONE', #486, #403, #1151 ) ;
#589 = CARTESIAN_POINT ( 'NONE',  ( 0.000000000000000000, 0.000000000000000000, 0.000000000000000000 ) ) ;
#590 = ADVANCED_FACE ( 'NONE', ( #206, #200 ), #536, .F. ) ;
#591 = DIRECTION ( 'NONE',  ( -0.000000000000000000, -1.000000000000000000, -0.000000000000000000 ) ) ;
#592 = CARTESIAN_POINT ( 'NONE',  ( 0.000000000000000000, 0.000000000000000000, 0.000000000000000000 ) ) ;
#593 =( LENGTH_UNIT ( ) NAMED_UNIT ( * ) SI_UNIT ( .MILLI., .METRE. ) );
#594 = DIRECTION ( 'NONE',  ( -0.000000000000000000, -1.000000000000000000, -0.000000000000000000 ) ) ;
#595 = STYLED_ITEM ( 'NONE', ( #866 ), #798 ) ;
#596 = SURFACE_STYLE_USAGE ( .BOTH. , #864 ) ;
#597 = EDGE_CURVE ( 'NONE', #1116, #1116, #78, .T. ) ;
#598 = DIRECTION ( 'NONE',  ( -0.000000000000000000, -1.000000000000000000, -0.000000000000000000 ) ) ;
#599 = FACE_OUTER_BOUND ( 'NONE', #622, .T. ) ;
#600 = PRODUCT_DEFINITION_CONTEXT ( 'detailed design', #361, 'design' ) ;
#601 = CARTESIAN_POINT ( 'NONE',  ( 0.000000000000000000, 26.66987298107780191, 0.000000000000000000 ) ) ;
#602 = DIRECTION ( 'NONE',  ( 0.000000000000000000, 0.000000000000000000, -1.000000000000000000 ) ) ;
#603 = DIRECTION ( 'NONE',  ( -0.000000000000000000, -1.000000000000000000, -0.000000000000000000 ) ) ;
#604 = EDGE_LOOP ( 'NONE', ( #644 ) ) ;
#605 = FACE_OUTER_BOUND ( 'NONE', #1191, .T. ) ;
#606 = AXIS2_PLACEMENT_3D ( 'NONE', #508, #603, #327 ) ;
#607 = CARTESIAN_POINT ( 'NONE',  ( 0.000000000000000000, 0.000000000000000000, -19.00000000000000000 ) ) ;
#608 = FACE_BOUND ( 'NONE', #230, .T. ) ;
#609 = DIRECTION ( 'NONE',  ( 0.000000000000000000, 0.000000000000000000, 1.000000000000000000 ) ) ;
#610 = FILL_AREA_STYLE ('',( #342 ) ) ;
#611 = ADVANCED_FACE ( 'NONE', ( #1181, #768 ), #1084, .F. ) ;
#612 = EDGE_LOOP ( 'NONE', ( #268 ) ) ;
#613 = CARTESIAN_POINT ( 'NONE',  ( 0.000000000000000000, 26.00000000000000000, 0.000000000000000000 ) ) ;
#614 = SHAPE_REPRESENTATION ( 'Carvera吸尘器转接口-50', ( #751 ), #496 ) ;
#615 = CARTESIAN_POINT ( 'NONE',  ( 0.000000000000000000, 57.62435565298193296, 11.00000000000000000 ) ) ;
#616 = EDGE_LOOP ( 'NONE', ( #525 ) ) ;
#617 = PLANE ( 'NONE',  #474 ) ;
#618 = FACE_OUTER_BOUND ( 'NONE', #441, .T. ) ;
#619 = FACE_OUTER_BOUND ( 'NONE', #261, .T. ) ;
#620 = EDGE_CURVE ( 'NONE', #1187, #1187, #235, .T. ) ;
#621 = ORIENTED_EDGE ( 'NONE', *, *, #432, .T. ) ;
#622 = EDGE_LOOP ( 'NONE', ( #809 ) ) ;
#623 = FACE_BOUND ( 'NONE', #612, .T. ) ;
#624 = EDGE_LOOP ( 'NONE', ( #1093 ) ) ;
#625 = UNCERTAINTY_MEASURE_WITH_UNIT (LENGTH_MEASURE( 1.000000000000000082E-05 ), #399, 'distance_accuracy_value', 'NONE');
#626 = ORIENTED_EDGE ( 'NONE', *, *, #419, .F. ) ;
#627 = EDGE_CURVE ( 'NONE', #556, #556, #921, .T. ) ;
#628 = AXIS2_PLACEMENT_3D ( 'NONE', #112, #691, #1076 ) ;
#629 = EDGE_LOOP ( 'NONE', ( #297 ) ) ;
#630 = PRODUCT ( 'Carvera吸尘器转接口-36', 'Carvera吸尘器转接口-36', '', ( #185 ) ) ;
#631 = EDGE_LOOP ( 'NONE', ( #733 ) ) ;
#632 = DIRECTION ( 'NONE',  ( 0.000000000000000000, 0.000000000000000000, -1.000000000000000000 ) ) ;
#633 = FILL_AREA_STYLE_COLOUR ( '', #811 ) ;
#634 = AXIS2_PLACEMENT_3D ( 'NONE', #184, #1015, #98 ) ;
#635 = CARTESIAN_POINT ( 'NONE',  ( 0.000000000000000000, 58.12435565298193296, 10.50000000000000178 ) ) ;
#636 = ORIENTED_EDGE ( 'NONE', *, *, #1033, .T. ) ;
#637 = FACE_BOUND ( 'NONE', #1125, .T. ) ;
#638 = CARTESIAN_POINT ( 'NONE',  ( 0.000000000000000000, 26.66987298107780902, 0.000000000000000000 ) ) ;
#639 = FILL_AREA_STYLE_COLOUR ( '', #406 ) ;
#640 = ADVANCED_FACE ( 'NONE', ( #599, #394 ), #39, .T. ) ;
#641 = VERTEX_POINT ( 'NONE', #454 ) ;
#642 = EDGE_LOOP ( 'NONE', ( #872 ) ) ;
#643 = FACE_OUTER_BOUND ( 'NONE', #470, .T. ) ;
#644 = ORIENTED_EDGE ( 'NONE', *, *, #271, .T. ) ;
#645 = DIRECTION ( 'NONE',  ( -0.000000000000000000, -1.000000000000000000, -0.000000000000000000 ) ) ;
#646 = AXIS2_PLACEMENT_3D ( 'NONE', #880, #900, #609 ) ;
#647 = CARTESIAN_POINT ( 'NONE',  ( 0.000000000000000000, 40.72243186433527740, -9.000000000000000000 ) ) ;
#648 = EDGE_LOOP ( 'NONE', ( #547 ) ) ;
#649 =( GEOMETRIC_REPRESENTATION_CONTEXT ( 3 ) GLOBAL_UNCERTAINTY_ASSIGNED_CONTEXT ( ( #982 ) ) GLOBAL_UNIT_ASSIGNED_CONTEXT ( ( #418, #692, #887 ) ) REPRESENTATION_CONTEXT ( 'NONE', 'WORKASPACE' ) );
#650 = DIRECTION ( 'NONE',  ( 0.000000000000000000, 0.000000000000000000, -1.000000000000000000 ) ) ;
#651 = SHAPE_DEFINITION_REPRESENTATION ( #1152, #614 ) ;
#652 = AXIS2_PLACEMENT_3D ( 'NONE', #660, #938, #109 ) ;
#653 = PRESENTATION_STYLE_ASSIGNMENT (( #192 ) ) ;
#654 = ORIENTED_EDGE ( 'NONE', *, *, #450, .T. ) ;
#655 = CYLINDRICAL_SURFACE ( 'NONE', #132, 16.00000000000000000 ) ;
#656 = CARTESIAN_POINT ( 'NONE',  ( 8.999999999999998224, 59.85640646055079372, 0.000000000000000000 ) ) ;
#657 = APPLICATION_PROTOCOL_DEFINITION ( 'draft international standard', 'automotive_design', 1998, #1140 ) ;
#658 = ORIENTED_EDGE ( 'NONE', *, *, #681, .T. ) ;
#659 = DIRECTION ( 'NONE',  ( 0.000000000000000000, 0.000000000000000000, -1.000000000000000000 ) ) ;
#660 = CARTESIAN_POINT ( 'NONE',  ( 0.000000000000000000, 0.000000000000000000, 0.000000000000000000 ) ) ;
#661 = ADVANCED_FACE ( 'NONE', ( #423, #786 ), #282, .F. ) ;
#662 = CLOSED_SHELL ( 'NONE', ( #458, #675, #1214, #800, #844, #405, #526, #640, #542 ) ) ;
#663 = APPLICATION_PROTOCOL_DEFINITION ( 'draft international standard', 'automotive_design', 1998, #228 ) ;
#664 = MECHANICAL_DESIGN_GEOMETRIC_PRESENTATION_REPRESENTATION (  '', ( #850 ), #1048 ) ;
#665 = CARTESIAN_POINT ( 'NONE',  ( 0.000000000000000000, 39.66025403784423276, -11.00000000000000178 ) ) ;
#666 = CARTESIAN_POINT ( 'NONE',  ( 0.000000000000000000, 42.25833024919752035, 0.000000000000000000 ) ) ;
#667 =( GEOMETRIC_REPRESENTATION_CONTEXT ( 3 ) GLOBAL_UNCERTAINTY_ASSIGNED_CONTEXT ( ( #816 ) ) GLOBAL_UNIT_ASSIGNED_CONTEXT ( ( #34, #1190, #830 ) ) REPRESENTATION_CONTEXT ( 'NONE', 'WORKASPACE' ) );
#668 = STYLED_ITEM ( 'NONE', ( #796 ), #1104 ) ;
#669 = DIRECTION ( 'NONE',  ( -0.000000000000000000, -1.000000000000000000, -0.000000000000000000 ) ) ;
#670 = DIRECTION ( 'NONE',  ( 0.000000000000000000, 0.000000000000000000, -1.000000000000000000 ) ) ;
#671 = AXIS2_PLACEMENT_3D ( 'NONE', #826, #172, #1099 ) ;
#672 = FACE_OUTER_BOUND ( 'NONE', #557, .T. ) ;
#673 = CARTESIAN_POINT ( 'NONE',  ( 0.000000000000000000, 0.000000000000000000, 0.000000000000000000 ) ) ;
#674 = VERTEX_POINT ( 'NONE', #11 ) ;
#675 = ADVANCED_FACE ( 'NONE', ( #718, #171 ), #57, .F. ) ;
#676 = FACE_OUTER_BOUND ( 'NONE', #174, .T. ) ;
#677 =( NAMED_UNIT ( * ) SI_UNIT ( $, .STERADIAN. ) SOLID_ANGLE_UNIT ( ) );
#678 = FACE_OUTER_BOUND ( 'NONE', #371, .T. ) ;
#679 = AXIS2_PLACEMENT_3D ( 'NONE', #1103, #1192, #908 ) ;
#680 = AXIS2_PLACEMENT_3D ( 'NONE', #87, #464, #1118 ) ;
#681 = EDGE_CURVE ( 'NONE', #346, #346, #260, .T. ) ;
#682 = FACE_OUTER_BOUND ( 'NONE', #273, .T. ) ;
#683 = ADVANCED_BREP_SHAPE_REPRESENTATION ( '', ( #788, #751 ), #322 ) ;
#684 = CARTESIAN_POINT ( 'NONE',  ( 0.000000000000000000, 59.85640646055079372, 0.000000000000000000 ) ) ;
#685 = MECHANICAL_DESIGN_GEOMETRIC_PRESENTATION_REPRESENTATION (  '', ( #442 ), #105 ) ;
#686 = SURFACE_SIDE_STYLE ('',( #1077 ) ) ;
#687 = FILL_AREA_STYLE ('',( #792 ) ) ;
#688 = PRODUCT_DEFINITION_FORMATION_WITH_SPECIFIED_SOURCE ( '任何', '', #630, .NOT_KNOWN. ) ;
#689 =( LENGTH_UNIT ( ) NAMED_UNIT ( * ) SI_UNIT ( .MILLI., .METRE. ) );
#690 = DIRECTION ( 'NONE',  ( 0.000000000000000000, 0.000000000000000000, -1.000000000000000000 ) ) ;
#691 = DIRECTION ( 'NONE',  ( 0.000000000000000000, 1.000000000000000000, 0.000000000000000000 ) ) ;
#692 =( NAMED_UNIT ( * ) PLANE_ANGLE_UNIT ( ) SI_UNIT ( $, .RADIAN. ) );
#693 = EDGE_LOOP ( 'NONE', ( #350 ) ) ;
#694 = DIRECTION ( 'NONE',  ( 0.000000000000000000, 0.000000000000000000, 1.000000000000000000 ) ) ;
#695 = VERTEX_POINT ( 'NONE', #548 ) ;
#696 = CONTEXT_DEPENDENT_SHAPE_REPRESENTATION ( #759, #63 ) ;
#697 = ADVANCED_FACE ( 'NONE', ( #356, #838 ), #739, .T. ) ;
#698 = CARTESIAN_POINT ( 'NONE',  ( 0.000000000000000000, 0.000000000000000000, 0.000000000000000000 ) ) ;
#699 = FACE_BOUND ( 'NONE', #446, .T. ) ;
#700 =( LENGTH_UNIT ( ) NAMED_UNIT ( * ) SI_UNIT ( .MILLI., .METRE. ) );
#701 = CLOSED_SHELL ( 'NONE', ( #198, #280, #1201, #118, #1225, #716, #26, #411, #424 ) ) ;
#702 = ORIENTED_EDGE ( 'NONE', *, *, #1040, .T. ) ;
#703 = AXIS2_PLACEMENT_3D ( 'NONE', #108, #848, #481 ) ;
#704 = CARTESIAN_POINT ( 'NONE',  ( 0.000000000000000000, 58.12435565298193296, -8.999999999999998224 ) ) ;
#705 = FACE_OUTER_BOUND ( 'NONE', #943, .T. ) ;
#706 = DIRECTION ( 'NONE',  ( 0.000000000000000000, -1.000000000000000000, -0.000000000000000000 ) ) ;
#707 = ADVANCED_FACE ( 'NONE', ( #1027, #348 ), #537, .T. ) ;
#708 = MECHANICAL_DESIGN_GEOMETRIC_PRESENTATION_REPRESENTATION (  '', ( #479 ), #263 ) ;
#709 = ORIENTED_EDGE ( 'NONE', *, *, #1033, .F. ) ;
#710 = UNCERTAINTY_MEASURE_WITH_UNIT (LENGTH_MEASURE( 1.000000000000000082E-05 ), #876, 'distance_accuracy_value', 'NONE');
#711 = VERTEX_POINT ( 'NONE', #916 ) ;
#712 = EDGE_LOOP ( 'NONE', ( #347 ) ) ;
#713 = AXIS2_PLACEMENT_3D ( 'NONE', #656, #1, #1057 ) ;
#714 =( LENGTH_UNIT ( ) NAMED_UNIT ( * ) SI_UNIT ( .MILLI., .METRE. ) );
#715 = EDGE_LOOP ( 'NONE', ( #817 ) ) ;
#716 = ADVANCED_FACE ( 'NONE', ( #1197, #1016 ), #523, .T. ) ;
#717 = ORIENTED_EDGE ( 'NONE', *, *, #997, .T. ) ;
#718 = FACE_OUTER_BOUND ( 'NONE', #1215, .T. ) ;
#719 = SURFACE_SIDE_STYLE ('',( #1218 ) ) ;
#720 = EDGE_LOOP ( 'NONE', ( #658 ) ) ;
#721 = FACE_OUTER_BOUND ( 'NONE', #455, .T. ) ;
#722 = UNCERTAINTY_MEASURE_WITH_UNIT (LENGTH_MEASURE( 1.000000000000000082E-05 ), #593, 'distance_accuracy_value', 'NONE');
#723 = AXIS2_PLACEMENT_3D ( 'NONE', #278, #819, #541 ) ;
#724 = EDGE_CURVE ( 'NONE', #695, #695, #147, .T. ) ;
#725 = ORIENTED_EDGE ( 'NONE', *, *, #584, .T. ) ;
#726 = AXIS2_PLACEMENT_3D ( 'NONE', #885, #427, #966 ) ;
#727 = CIRCLE ( 'NONE', #217, 18.00000000000000000 ) ;
#728 = ORIENTED_EDGE ( 'NONE', *, *, #1161, .F. ) ;
#729 = FACE_OUTER_BOUND ( 'NONE', #79, .T. ) ;
#730 = DIRECTION ( 'NONE',  ( 0.000000000000000000, 0.000000000000000000, -1.000000000000000000 ) ) ;
#731 = AXIS2_PLACEMENT_3D ( 'NONE', #859, #197, #855 ) ;
#732 = AXIS2_PLACEMENT_3D ( 'NONE', #29, #343, #366 ) ;
#733 = ORIENTED_EDGE ( 'NONE', *, *, #207, .F. ) ;
#734 = VERTEX_POINT ( 'NONE', #1178 ) ;
#735 = EDGE_LOOP ( 'NONE', ( #540 ) ) ;
#736 = DIRECTION ( 'NONE',  ( -0.000000000000000000, -1.000000000000000000, -0.000000000000000000 ) ) ;
#737 = ORIENTED_EDGE ( 'NONE', *, *, #758, .F. ) ;
#738 = DIRECTION ( 'NONE',  ( -0.000000000000000000, -1.000000000000000000, -0.000000000000000000 ) ) ;
#739 = PLANE ( 'NONE',  #723 ) ;
#740 = ADVANCED_FACE ( 'NONE', ( #1206, #1115 ), #392, .T. ) ;
#741 = CARTESIAN_POINT ( 'NONE',  ( 0.000000000000000000, 54.66025403784423276, 10.49999999999998934 ) ) ;
#742 = EDGE_LOOP ( 'NONE', ( #725 ) ) ;
#743 = CARTESIAN_POINT ( 'NONE',  ( 0.000000000000000000, 26.00000000000000000, 0.000000000000000000 ) ) ;
#744 = PRESENTATION_LAYER_ASSIGNMENT (  '', '', ( #472 ) ) ;
#745 = CARTESIAN_POINT ( 'NONE',  ( 0.000000000000000000, 57.62435565298193296, 0.000000000000000000 ) ) ;
#746 = AXIS2_PLACEMENT_3D ( 'NONE', #16, #307, #49 ) ;
#747 = DIRECTION ( 'NONE',  ( 1.000000000000000000, 0.000000000000000000, 0.000000000000000000 ) ) ;
#748 = VERTEX_POINT ( 'NONE', #381 ) ;
#749 = EDGE_LOOP ( 'NONE', ( #1177 ) ) ;
#750 = FILL_AREA_STYLE_COLOUR ( '', #156 ) ;
#751 = AXIS2_PLACEMENT_3D ( 'NONE', #767, #1149, #1129 ) ;
#752 = DIRECTION ( 'NONE',  ( -0.000000000000000000, -1.000000000000000000, -0.000000000000000000 ) ) ;
#753 = APPLICATION_PROTOCOL_DEFINITION ( 'draft international standard', 'automotive_design', 1998, #2 ) ;
#754 = CARTESIAN_POINT ( 'NONE',  ( 0.000000000000000000, 59.35640646055079372, 11.00000000000000000 ) ) ;
#755 = ORIENTED_EDGE ( 'NONE', *, *, #190, .F. ) ;
#756 = CARTESIAN_POINT ( 'NONE',  ( 0.000000000000000000, 26.66987298107781257, 0.000000000000000000 ) ) ;
#757 = AXIS2_PLACEMENT_3D ( 'NONE', #357, #1183, #923 ) ;
#758 = EDGE_CURVE ( 'NONE', #233, #233, #875, .T. ) ;
#759 =( REPRESENTATION_RELATIONSHIP ('NONE','NONE', #372, #614 ) REPRESENTATION_RELATIONSHIP_WITH_TRANSFORMATION ( #970 )SHAPE_REPRESENTATION_RELATIONSHIP( ) );
#760 = APPLICATION_PROTOCOL_DEFINITION ( 'draft international standard', 'automotive_design', 1998, #361 ) ;
#761 = SURFACE_SIDE_STYLE ('',( #1037 ) ) ;
#762 = DIRECTION ( 'NONE',  ( 0.000000000000000000, -1.000000000000000000, -0.000000000000000000 ) ) ;
#763 = CARTESIAN_POINT ( 'NONE',  ( 0.000000000000000000, 59.35640646055079372, 0.000000000000000000 ) ) ;
#764 = SURFACE_STYLE_FILL_AREA ( #8 ) ;
#765 = APPLICATION_PROTOCOL_DEFINITION ( 'draft international standard', 'automotive_design', 1998, #301 ) ;
#766 = AXIS2_PLACEMENT_3D ( 'NONE', #513, #795, #400 ) ;
#767 = CARTESIAN_POINT ( 'NONE',  ( 0.000000000000000000, 0.000000000000000000, 0.000000000000000000 ) ) ;
#768 = FACE_OUTER_BOUND ( 'NONE', #616, .T. ) ;
#769 = PRESENTATION_STYLE_ASSIGNMENT (( #596 ) ) ;
#770 = ADVANCED_FACE ( 'NONE', ( #266, #619 ), #566, .T. ) ;
#771 = CARTESIAN_POINT ( 'NONE',  ( 0.000000000000000000, 0.000000000000000000, -27.50000000000000000 ) ) ;
#772 = PRESENTATION_LAYER_ASSIGNMENT (  '', '', ( #818 ) ) ;
#773 = CYLINDRICAL_SURFACE ( 'NONE', #4, 11.00000000000000000 ) ;
#774 = PRODUCT_DEFINITION_FORMATION_WITH_SPECIFIED_SOURCE ( '任何', '', #957, .NOT_KNOWN. ) ;
#775 =( GEOMETRIC_REPRESENTATION_CONTEXT ( 3 ) GLOBAL_UNCERTAINTY_ASSIGNED_CONTEXT ( ( #533 ) ) GLOBAL_UNIT_ASSIGNED_CONTEXT ( ( #467, #933, #221 ) ) REPRESENTATION_CONTEXT ( 'NONE', 'WORKASPACE' ) );
#776 = CARTESIAN_POINT ( 'NONE',  ( 9.000000000000000000, 54.66025403784423276, 0.000000000000000000 ) ) ;
#777 = EDGE_CURVE ( 'NONE', #1227, #1227, #524, .T. ) ;
#778 = CARTESIAN_POINT ( 'NONE',  ( 0.000000000000000000, 0.000000000000000000, 0.000000000000000000 ) ) ;
#779 = PRESENTATION_STYLE_ASSIGNMENT (( #318 ) ) ;
#780 = DIRECTION ( 'NONE',  ( 0.000000000000000000, 0.000000000000000000, -1.000000000000000000 ) ) ;
#781 = AXIS2_PLACEMENT_3D ( 'NONE', #83, #1121, #265 ) ;
#782 = PRODUCT_DEFINITION_CONTEXT ( 'detailed design', #505, 'design' ) ;
#783 = DIRECTION ( 'NONE',  ( 0.000000000000000000, 0.000000000000000000, -1.000000000000000000 ) ) ;
#784 = MANIFOLD_SOLID_BREP ( '倒角1', #1023 ) ;
#785 = EDGE_LOOP ( 'NONE', ( #283 ) ) ;
#786 = FACE_BOUND ( 'NONE', #262, .T. ) ;
#787 = SURFACE_STYLE_FILL_AREA ( #610 ) ;
#788 = MANIFOLD_SOLID_BREP ( '倒角1', #662 ) ;
#789 = ADVANCED_BREP_SHAPE_REPRESENTATION ( '', ( #1205, #751 ), #496 ) ;
#790 = EDGE_CURVE ( 'NONE', #799, #799, #444, .T. ) ;
#791 = AXIS2_PLACEMENT_3D ( 'NONE', #177, #560, #650 ) ;
#792 = FILL_AREA_STYLE_COLOUR ( '', #515 ) ;
#793 = AXIS2_PLACEMENT_3D ( 'NONE', #489, #9, #941 ) ;
#794 = CARTESIAN_POINT ( 'NONE',  ( 0.000000000000000000, 0.000000000000000000, 0.000000000000000000 ) ) ;
#795 = DIRECTION ( 'NONE',  ( -0.000000000000000000, -1.000000000000000000, -0.000000000000000000 ) ) ;
#796 = PRESENTATION_STYLE_ASSIGNMENT (( #248 ) ) ;
#797 = ORIENTED_EDGE ( 'NONE', *, *, #1161, .T. ) ;
#798 = MANIFOLD_SOLID_BREP ( '倒角1', #1085 ) ;
#799 = VERTEX_POINT ( 'NONE', #368 ) ;
#800 = ADVANCED_FACE ( 'NONE', ( #1001, #623 ), #1074, .T. ) ;
#801 = FACE_OUTER_BOUND ( 'NONE', #48, .T. ) ;
#802 = DIRECTION ( 'NONE',  ( -0.000000000000000000, -1.000000000000000000, -0.000000000000000000 ) ) ;
#803 =( NAMED_UNIT ( * ) SI_UNIT ( $, .STERADIAN. ) SOLID_ANGLE_UNIT ( ) );
#804 = AXIS2_PLACEMENT_3D ( 'NONE', #339, #1075, #780 ) ;
#805 = EDGE_LOOP ( 'NONE', ( #1199 ) ) ;
#806 = CARTESIAN_POINT ( 'NONE',  ( 0.000000000000000000, 0.000000000000000000, 0.000000000000000000 ) ) ;
#807 = CIRCLE ( 'NONE', #382, 18.00000000000000000 ) ;
#808 = CARTESIAN_POINT ( 'NONE',  ( 0.000000000000000000, 26.00000000000000000, -18.00000000000000000 ) ) ;
#809 = ORIENTED_EDGE ( 'NONE', *, *, #812, .T. ) ;
#810 = CARTESIAN_POINT ( 'NONE',  ( 0.000000000000000000, 55.24871130596394408, 0.000000000000000000 ) ) ;
#811 = COLOUR_RGB ( '',1.000000000000000000, 1.000000000000000000, 1.000000000000000000 ) ;
#812 = EDGE_CURVE ( 'NONE', #272, #272, #249, .T. ) ;
#813 = SURFACE_STYLE_USAGE ( .BOTH. , #1198 ) ;
#814 =( GEOMETRIC_REPRESENTATION_CONTEXT ( 3 ) GLOBAL_UNCERTAINTY_ASSIGNED_CONTEXT ( ( #722 ) ) GLOBAL_UNIT_ASSIGNED_CONTEXT ( ( #593, #1176, #329 ) ) REPRESENTATION_CONTEXT ( 'NONE', 'WORKASPACE' ) );
#815 = ORIENTED_EDGE ( 'NONE', *, *, #182, .T. ) ;
#816 = UNCERTAINTY_MEASURE_WITH_UNIT (LENGTH_MEASURE( 1.000000000000000082E-05 ), #34, 'distance_accuracy_value', 'NONE');
#817 = ORIENTED_EDGE ( 'NONE', *, *, #1060, .F. ) ;
#818 = STYLED_ITEM ( 'NONE', ( #779 ), #788 ) ;
#819 = DIRECTION ( 'NONE',  ( 0.000000000000000000, -1.000000000000000000, -0.000000000000000000 ) ) ;
#820 = APPLICATION_PROTOCOL_DEFINITION ( 'draft international standard', 'automotive_design', 1998, #1163 ) ;
#821 = EDGE_CURVE ( 'NONE', #140, #140, #522, .T. ) ;
#822 = ORIENTED_EDGE ( 'NONE', *, *, #432, .F. ) ;
#823 = DIRECTION ( 'NONE',  ( -0.000000000000000000, -1.000000000000000000, -0.000000000000000000 ) ) ;
#824 = DIRECTION ( 'NONE',  ( -0.000000000000000000, -1.000000000000000000, -0.000000000000000000 ) ) ;
#825 = PRODUCT ( 'Carvera吸尘器转接口-35', 'Carvera吸尘器转接口-35', '', ( #1148 ) ) ;
#826 = CARTESIAN_POINT ( 'NONE',  ( 0.000000000000000000, 26.66987298107780191, 0.000000000000000000 ) ) ;
#827 = EDGE_LOOP ( 'NONE', ( #531 ) ) ;
#828 = UNCERTAINTY_MEASURE_WITH_UNIT (LENGTH_MEASURE( 1.000000000000000082E-05 ), #213, 'distance_accuracy_value', 'NONE');
#829 = CIRCLE ( 'NONE', #302, 19.99999999999999645 ) ;
#830 =( NAMED_UNIT ( * ) SI_UNIT ( $, .STERADIAN. ) SOLID_ANGLE_UNIT ( ) );
#831 = VERTEX_POINT ( 'NONE', #615 ) ;
#832 = STYLED_ITEM ( 'NONE', ( #769 ), #1205 ) ;
#833 = ORIENTED_EDGE ( 'NONE', *, *, #988, .T. ) ;
#834 = FACE_OUTER_BOUND ( 'NONE', #186, .T. ) ;
#835 = ORIENTED_EDGE ( 'NONE', *, *, #380, .T. ) ;
#836 = ADVANCED_FACE ( 'NONE', ( #1010, #1114 ), #1156, .T. ) ;
#837 = DIRECTION ( 'NONE',  ( -0.000000000000000000, -1.000000000000000000, -0.000000000000000000 ) ) ;
#838 = FACE_BOUND ( 'NONE', #901, .T. ) ;
#839 = CIRCLE ( 'NONE', #482, 20.49999999999999645 ) ;
#840 = CARTESIAN_POINT ( 'NONE',  ( 0.000000000000000000, 53.71281292110170114, -8.999999999999998224 ) ) ;
#841 = EDGE_LOOP ( 'NONE', ( #463 ) ) ;
#842 = DIRECTION ( 'NONE',  ( -0.000000000000000000, -1.000000000000000000, -0.000000000000000000 ) ) ;
#843 = FACE_OUTER_BOUND ( 'NONE', #712, .T. ) ;
#844 = ADVANCED_FACE ( 'NONE', ( #899, #55 ), #391, .T. ) ;
#845 = APPLICATION_PROTOCOL_DEFINITION ( 'draft international standard', 'automotive_design', 1998, #1007 ) ;
#846 = VERTEX_POINT ( 'NONE', #896 ) ;
#847 = EDGE_LOOP ( 'NONE', ( #1038 ) ) ;
#848 = DIRECTION ( 'NONE',  ( 0.000000000000000000, -1.000000000000000000, -0.000000000000000000 ) ) ;
#849 = CARTESIAN_POINT ( 'NONE',  ( 0.000000000000000000, 0.000000000000000000, 0.000000000000000000 ) ) ;
#850 = STYLED_ITEM ( 'NONE', ( #97 ), #396 ) ;
#851 = DIRECTION ( 'NONE',  ( 0.000000000000000000, 0.000000000000000000, 1.000000000000000000 ) ) ;
#852 = EDGE_CURVE ( 'NONE', #711, #711, #328, .T. ) ;
#853 = EDGE_LOOP ( 'NONE', ( #362 ) ) ;
#854 = DIRECTION ( 'NONE',  ( 0.000000000000000000, 0.000000000000000000, -1.000000000000000000 ) ) ;
#855 = DIRECTION ( 'NONE',  ( 0.000000000000000000, 0.000000000000000000, -1.000000000000000000 ) ) ;
#856 = PRESENTATION_LAYER_ASSIGNMENT (  '', '', ( #595 ) ) ;
#857 = FILL_AREA_STYLE_COLOUR ( '', #926 ) ;
#858 = DIRECTION ( 'NONE',  ( -0.000000000000000000, -1.000000000000000000, -0.000000000000000000 ) ) ;
#859 = CARTESIAN_POINT ( 'NONE',  ( 0.000000000000000000, 41.58845726811970422, 0.000000000000000000 ) ) ;
#860 = FILL_AREA_STYLE_COLOUR ( '', #937 ) ;
#861 = VERTEX_POINT ( 'NONE', #490 ) ;
#862 = CYLINDRICAL_SURFACE ( 'NONE', #746, 19.99999999999999645 ) ;
#863 = EDGE_CURVE ( 'NONE', #431, #431, #579, .T. ) ;
#864 = SURFACE_SIDE_STYLE ('',( #974 ) ) ;
#865 = AXIS2_PLACEMENT_3D ( 'NONE', #592, #507, #1160 ) ;
#866 = PRESENTATION_STYLE_ASSIGNMENT (( #984 ) ) ;
#867 = AXIS2_PLACEMENT_3D ( 'NONE', #485, #1051, #334 ) ;
#868 = VERTEX_POINT ( 'NONE', #306 ) ;
#869 = CARTESIAN_POINT ( 'NONE',  ( 0.000000000000000000, 70.24871130596393698, 0.000000000000000000 ) ) ;
#870 = VERTEX_POINT ( 'NONE', #311 ) ;
#871 = PRODUCT_RELATED_PRODUCT_CATEGORY ( 'part', '', ( #825 ) ) ;
#872 = ORIENTED_EDGE ( 'NONE', *, *, #225, .T. ) ;
#873 = CIRCLE ( 'NONE', #349, 9.000000000000000000 ) ;
#874 = UNCERTAINTY_MEASURE_WITH_UNIT (LENGTH_MEASURE( 1.000000000000000082E-05 ), #210, 'distance_accuracy_value', 'NONE');
#875 = CIRCLE ( 'NONE', #68, 25.00000000000000000 ) ;
#876 =( LENGTH_UNIT ( ) NAMED_UNIT ( * ) SI_UNIT ( .MILLI., .METRE. ) );
#877 = FACE_OUTER_BOUND ( 'NONE', #335, .T. ) ;
#878 = CARTESIAN_POINT ( 'NONE',  ( 0.000000000000000000, 38.12435565298199691, 0.000000000000000000 ) ) ;
#879 = DIRECTION ( 'NONE',  ( 0.000000000000000000, 0.000000000000000000, -1.000000000000000000 ) ) ;
#880 = CARTESIAN_POINT ( 'NONE',  ( 0.000000000000000000, 54.16025403784421144, 0.000000000000000000 ) ) ;
#881 = AXIS2_PLACEMENT_3D ( 'NONE', #806, #1186, #345 ) ;
#882 = EDGE_CURVE ( 'NONE', #990, #990, #44, .T. ) ;
#883 = UNCERTAINTY_MEASURE_WITH_UNIT (LENGTH_MEASURE( 1.000000000000000082E-05 ), #700, 'distance_accuracy_value', 'NONE');
#884 = DIRECTION ( 'NONE',  ( 0.000000000000000000, 0.000000000000000000, -1.000000000000000000 ) ) ;
#885 = CARTESIAN_POINT ( 'NONE',  ( 8.999999999999998224, 70.24871130596393698, 0.000000000000000000 ) ) ;
#886 = FACE_OUTER_BOUND ( 'NONE', #847, .T. ) ;
#887 =( NAMED_UNIT ( * ) SI_UNIT ( $, .STERADIAN. ) SOLID_ANGLE_UNIT ( ) );
#888 = PRODUCT_DEFINITION ( '未知', '', #252, #323 ) ;
#889 = ORIENTED_EDGE ( 'NONE', *, *, #1123, .F. ) ;
#890 = COLOUR_RGB ( '',1.000000000000000000, 1.000000000000000000, 1.000000000000000000 ) ;
#891 = CARTESIAN_POINT ( 'NONE',  ( 0.000000000000000000, 44.85640646055079372, -11.00000000000000178 ) ) ;
#892 = DIRECTION ( 'NONE',  ( 0.000000000000000000, 1.000000000000000000, 0.000000000000000000 ) ) ;
#893 = FACE_BOUND ( 'NONE', #693, .T. ) ;
#894 = ORIENTED_EDGE ( 'NONE', *, *, #863, .T. ) ;
#895 = CARTESIAN_POINT ( 'NONE',  ( 0.000000000000000000, 58.12435565298193296, 0.000000000000000000 ) ) ;
#896 = CARTESIAN_POINT ( 'NONE',  ( 0.000000000000000000, 26.66987298107780902, -21.49999999999999645 ) ) ;
#897 = EDGE_LOOP ( 'NONE', ( #1078 ) ) ;
#898 = EDGE_CURVE ( 'NONE', #641, #641, #968, .T. ) ;
#899 = FACE_OUTER_BOUND ( 'NONE', #749, .T. ) ;
#900 = DIRECTION ( 'NONE',  ( -0.000000000000000000, -1.000000000000000000, -0.000000000000000000 ) ) ;
#901 = EDGE_LOOP ( 'NONE', ( #889 ) ) ;
#902 = FACE_OUTER_BOUND ( 'NONE', #897, .T. ) ;
#903 = AXIS2_PLACEMENT_3D ( 'NONE', #151, #238, #530 ) ;
#904 = ORIENTED_EDGE ( 'NONE', *, *, #929, .F. ) ;
#905 = CARTESIAN_POINT ( 'NONE',  ( 0.000000000000000000, 0.000000000000000000, 0.000000000000000000 ) ) ;
#906 =( REPRESENTATION_RELATIONSHIP ('NONE','NONE', #372, #947 ) REPRESENTATION_RELATIONSHIP_WITH_TRANSFORMATION ( #211 )SHAPE_REPRESENTATION_RELATIONSHIP( ) );
#907 = EDGE_LOOP ( 'NONE', ( #1098 ) ) ;
#908 = DIRECTION ( 'NONE',  ( 0.000000000000000000, 0.000000000000000000, -1.000000000000000000 ) ) ;
#909 = AXIS2_PLACEMENT_3D ( 'NONE', #224, #1159, #36 ) ;
#910 = SHAPE_REPRESENTATION ( 'Carvera吸尘器转接口-36', ( #751 ), #649 ) ;
#911 = SHAPE_REPRESENTATION_RELATIONSHIP ( 'NONE' , 'NONE' ,  #614, #789 ) ;
#912 = EDGE_LOOP ( 'NONE', ( #353 ) ) ;
#913 = FACE_OUTER_BOUND ( 'NONE', #912, .T. ) ;
#914 = EDGE_LOOP ( 'NONE', ( #999 ) ) ;
#915 = FILL_AREA_STYLE ('',( #639 ) ) ;
#916 = CARTESIAN_POINT ( 'NONE',  ( 0.000000000000000000, 26.00000000000000000, -17.50000000000000000 ) ) ;
#917 = EDGE_LOOP ( 'NONE', ( #920 ) ) ;
#918 = DIRECTION ( 'NONE',  ( -0.000000000000000000, -1.000000000000000000, -0.000000000000000000 ) ) ;
#919 = CONICAL_SURFACE ( 'NONE', #401, 11.00000000000000000, 0.7853981633974380649 ) ;
#920 = ORIENTED_EDGE ( 'NONE', *, *, #790, .T. ) ;
#921 = CIRCLE ( 'NONE', #646, 11.00000000000000000 ) ;
#922 = DIRECTION ( 'NONE',  ( -0.000000000000000000, -1.000000000000000000, -0.000000000000000000 ) ) ;
#923 = DIRECTION ( 'NONE',  ( 0.000000000000000000, 0.000000000000000000, -1.000000000000000000 ) ) ;
#924 =( NAMED_UNIT ( * ) SI_UNIT ( $, .STERADIAN. ) SOLID_ANGLE_UNIT ( ) );
#925 = VERTEX_POINT ( 'NONE', #771 ) ;
#926 = COLOUR_RGB ( '',1.000000000000000000, 1.000000000000000000, 1.000000000000000000 ) ;
#927 = ORIENTED_EDGE ( 'NONE', *, *, #724, .F. ) ;
#928 = FACE_OUTER_BOUND ( 'NONE', #1021, .T. ) ;
#929 = EDGE_CURVE ( 'NONE', #831, #831, #126, .T. ) ;
#930 = AXIS2_PLACEMENT_3D ( 'NONE', #638, #244, #519 ) ;
#931 = DIRECTION ( 'NONE',  ( -0.000000000000000000, -1.000000000000000000, -0.000000000000000000 ) ) ;
#932 = PRODUCT_CONTEXT ( 'NONE', #275, 'mechanical' ) ;
#933 =( NAMED_UNIT ( * ) PLANE_ANGLE_UNIT ( ) SI_UNIT ( $, .RADIAN. ) );
#934 = VERTEX_POINT ( 'NONE', #840 ) ;
#935 = EDGE_LOOP ( 'NONE', ( #587 ) ) ;
#936 = CARTESIAN_POINT ( 'NONE',  ( 0.000000000000000000, 0.000000000000000000, 0.000000000000000000 ) ) ;
#937 = COLOUR_RGB ( '',1.000000000000000000, 1.000000000000000000, 1.000000000000000000 ) ;
#938 = DIRECTION ( 'NONE',  ( -0.000000000000000000, -1.000000000000000000, -0.000000000000000000 ) ) ;
#939 = ADVANCED_FACE ( 'NONE', ( #843, #571 ), #465, .T. ) ;
#940 = DIRECTION ( 'NONE',  ( 0.000000000000000000, 0.000000000000000000, -1.000000000000000000 ) ) ;
#941 = DIRECTION ( 'NONE',  ( 1.000000000000000000, 0.000000000000000000, 0.000000000000000000 ) ) ;
#942 =( NAMED_UNIT ( * ) PLANE_ANGLE_UNIT ( ) SI_UNIT ( $, .RADIAN. ) );
#943 = EDGE_LOOP ( 'NONE', ( #1031 ) ) ;
#944 = CARTESIAN_POINT ( 'NONE',  ( 0.000000000000000000, 26.00000000000000000, 0.000000000000000000 ) ) ;
#945 = CONICAL_SURFACE ( 'NONE', #1025, 19.99999999999999645, 0.5235987755983039227 ) ;
#946 = CONTEXT_DEPENDENT_SHAPE_REPRESENTATION ( #1208, #264 ) ;
#947 = SHAPE_REPRESENTATION ( 'Carvera吸尘器转接口-38', ( #751 ), #667 ) ;
#948 = CARTESIAN_POINT ( 'NONE',  ( 0.000000000000000000, 54.16025403784421144, 0.000000000000000000 ) ) ;
#949 = CIRCLE ( 'NONE', #1169, 9.000000000000000000 ) ;
#950 = CARTESIAN_POINT ( 'NONE',  ( 0.000000000000000000, 0.000000000000000000, 0.000000000000000000 ) ) ;
#951 = CARTESIAN_POINT ( 'NONE',  ( 97.26627847776879321, -25.49871851952964974, 55.09326673973644972 ) ) ;
#952 =( NAMED_UNIT ( * ) SI_UNIT ( $, .STERADIAN. ) SOLID_ANGLE_UNIT ( ) );
#953 = PLANE ( 'NONE',  #1146 ) ;
#954 = FACE_OUTER_BOUND ( 'NONE', #1137, .T. ) ;
#955 = DIRECTION ( 'NONE',  ( -0.000000000000000000, -1.000000000000000000, -0.000000000000000000 ) ) ;
#956 = VERTEX_POINT ( 'NONE', #1043 ) ;
#957 = PRODUCT ( 'Carvera吸尘器转接口-38', 'Carvera吸尘器转接口-38', '', ( #378 ) ) ;
#958 = EDGE_CURVE ( 'NONE', #149, #149, #1113, .T. ) ;
#959 = DIRECTION ( 'NONE',  ( 0.000000000000000000, 0.000000000000000000, -1.000000000000000000 ) ) ;
#960 = DIRECTION ( 'NONE',  ( 0.000000000000000000, 0.000000000000000000, -1.000000000000000000 ) ) ;
#961 = AXIS2_PLACEMENT_3D ( 'NONE', #589, #163, #241 ) ;
#962 = EDGE_LOOP ( 'NONE', ( #717 ) ) ;
#963 = AXIS2_PLACEMENT_3D ( 'NONE', #227, #802, #135 ) ;
#964 = DIRECTION ( 'NONE',  ( 0.000000000000000000, 0.000000000000000000, -1.000000000000000000 ) ) ;
#965 = PRESENTATION_LAYER_ASSIGNMENT (  '', '', ( #832 ) ) ;
#966 = DIRECTION ( 'NONE',  ( 0.000000000000000000, -0.000000000000000000, 1.000000000000000000 ) ) ;
#967 = SHAPE_REPRESENTATION_RELATIONSHIP ( 'NONE' , 'NONE' ,  #910, #1104 ) ;
#968 = CIRCLE ( 'NONE', #731, 8.999999999999998224 ) ;
#969 = DIRECTION ( 'NONE',  ( 0.000000000000000000, 0.000000000000000000, -1.000000000000000000 ) ) ;
#970 = ITEM_DEFINED_TRANSFORMATION ( 'NONE', 'NONE', #91,  #751 ) ;
#971 = EDGE_CURVE ( 'NONE', #925, #925, #310, .T. ) ;
#972 = EDGE_LOOP ( 'NONE', ( #1044 ) ) ;
#973 = DIRECTION ( 'NONE',  ( 0.000000000000000000, 0.000000000000000000, -1.000000000000000000 ) ) ;
#974 = SURFACE_STYLE_FILL_AREA ( #687 ) ;
#975 = DIRECTION ( 'NONE',  ( 0.000000000000000000, 0.000000000000000000, 1.000000000000000000 ) ) ;
#976 = CARTESIAN_POINT ( 'NONE',  ( 0.000000000000000000, 53.71281292110170114, 0.000000000000000000 ) ) ;
#977 = AXIS2_PLACEMENT_3D ( 'NONE', #794, #321, #879 ) ;
#978 = PRODUCT_RELATED_PRODUCT_CATEGORY ( 'part', '', ( #448 ) ) ;
#979 =( NAMED_UNIT ( * ) PLANE_ANGLE_UNIT ( ) SI_UNIT ( $, .RADIAN. ) );
#980 = AXIS2_PLACEMENT_3D ( 'NONE', #976, #246, #1091 ) ;
#981 = EDGE_LOOP ( 'NONE', ( #621 ) ) ;
#982 = UNCERTAINTY_MEASURE_WITH_UNIT (LENGTH_MEASURE( 1.000000000000000082E-05 ), #418, 'distance_accuracy_value', 'NONE');
#983 = CARTESIAN_POINT ( 'NONE',  ( 0.000000000000000000, 0.000000000000000000, -20.00000000000000000 ) ) ;
#984 = SURFACE_STYLE_USAGE ( .BOTH. , #236 ) ;
#985 = CARTESIAN_POINT ( 'NONE',  ( 0.000000000000000000, 0.000000000000000000, 0.000000000000000000 ) ) ;
#986 = EDGE_LOOP ( 'NONE', ( #243 ) ) ;
#987 = DIRECTION ( 'NONE',  ( 0.000000000000000000, 0.000000000000000000, -1.000000000000000000 ) ) ;
#988 = EDGE_CURVE ( 'NONE', #1157, #1157, #183, .T. ) ;
#989 = AXIS2_PLACEMENT_3D ( 'NONE', #1145, #293, #1041 ) ;
#990 = VERTEX_POINT ( 'NONE', #704 ) ;
#991 = ORIENTED_EDGE ( 'NONE', *, *, #988, .F. ) ;
#992 = AXIS2_PLACEMENT_3D ( 'NONE', #673, #1155, #398 ) ;
#993 = STYLED_ITEM ( 'NONE', ( #1122 ), #784 ) ;
#994 = DIRECTION ( 'NONE',  ( 0.000000000000000000, 0.000000000000000000, -1.000000000000000000 ) ) ;
#995 = DIRECTION ( 'NONE',  ( -0.000000000000000000, -1.000000000000000000, -0.000000000000000000 ) ) ;
#996 = ORIENTED_EDGE ( 'NONE', *, *, #106, .T. ) ;
#997 = EDGE_CURVE ( 'NONE', #315, #315, #143, .T. ) ;
#998 = EDGE_LOOP ( 'NONE', ( #245 ) ) ;
#999 = ORIENTED_EDGE ( 'NONE', *, *, #341, .T. ) ;
#1000 = AXIS2_PLACEMENT_3D ( 'NONE', #434, #995, #1172 ) ;
#1001 = FACE_OUTER_BOUND ( 'NONE', #66, .T. ) ;
#1002 = DIRECTION ( 'NONE',  ( 0.000000000000000000, 0.000000000000000000, -1.000000000000000000 ) ) ;
#1003 = AXIS2_PLACEMENT_3D ( 'NONE', #1052, #209, #1073 ) ;
#1004 = PRODUCT_DEFINITION_SHAPE ( 'NONE', 'NONE',  #1133 ) ;
#1005 = EDGE_LOOP ( 'NONE', ( #626 ) ) ;
#1006 = DIRECTION ( 'NONE',  ( 0.000000000000000000, 0.000000000000000000, -1.000000000000000000 ) ) ;
#1007 = APPLICATION_CONTEXT ( 'automotive_design' ) ;
#1008 = EDGE_LOOP ( 'NONE', ( #797 ) ) ;
#1009 = AXIS2_PLACEMENT_3D ( 'NONE', #1034, #1047, #483 ) ;
#1010 = FACE_BOUND ( 'NONE', #785, .T. ) ;
#1011 = PRODUCT_DEFINITION_FORMATION_WITH_SPECIFIED_SOURCE ( '任何', '', #448, .NOT_KNOWN. ) ;
#1012 = EDGE_CURVE ( 'NONE', #674, #674, #839, .T. ) ;
#1013 = CARTESIAN_POINT ( 'NONE',  ( 0.000000000000000000, 70.24871130596395119, -8.999999999999998224 ) ) ;
#1014 = EDGE_LOOP ( 'NONE', ( #240 ) ) ;
#1015 = DIRECTION ( 'NONE',  ( -0.000000000000000000, -1.000000000000000000, -0.000000000000000000 ) ) ;
#1016 = FACE_OUTER_BOUND ( 'NONE', #58, .T. ) ;
#1017 = PRESENTATION_STYLE_ASSIGNMENT (( #1226 ) ) ;
#1018 = EDGE_CURVE ( 'NONE', #1136, #1136, #873, .T. ) ;
#1019 = MECHANICAL_DESIGN_GEOMETRIC_PRESENTATION_REPRESENTATION (  '', ( #472 ), #191 ) ;
#1020 = CARTESIAN_POINT ( 'NONE',  ( 0.000000000000000000, 56.75833024919752035, 11.00000000000000000 ) ) ;
#1021 = EDGE_LOOP ( 'NONE', ( #1228 ) ) ;
#1022 = DIRECTION ( 'NONE',  ( 0.000000000000000000, 0.000000000000000000, -1.000000000000000000 ) ) ;
#1023 = CLOSED_SHELL ( 'NONE', ( #324, #590, #153, #137, #292, #740, #707, #697, #364 ) ) ;
#1024 = ORIENTED_EDGE ( 'NONE', *, *, #1040, .F. ) ;
#1025 = AXIS2_PLACEMENT_3D ( 'NONE', #194, #181, #659 ) ;
#1026 = DIRECTION ( 'NONE',  ( 0.000000000000000000, 0.000000000000000000, -1.000000000000000000 ) ) ;
#1027 = FACE_OUTER_BOUND ( 'NONE', #981, .T. ) ;
#1028 = DIRECTION ( 'NONE',  ( 0.000000000000000000, 0.000000000000000000, -1.000000000000000000 ) ) ;
#1029 = PRESENTATION_STYLE_ASSIGNMENT (( #813 ) ) ;
#1030 = VERTEX_POINT ( 'NONE', #85 ) ;
#1031 = ORIENTED_EDGE ( 'NONE', *, *, #724, .T. ) ;
#1032 = FACE_BOUND ( 'NONE', #180, .T. ) ;
#1033 = EDGE_CURVE ( 'NONE', #861, #861, #461, .T. ) ;
#1034 = CARTESIAN_POINT ( 'NONE',  ( 0.000000000000000000, 26.00000000000000000, 0.000000000000000000 ) ) ;
#1035 = AXIS2_PLACEMENT_3D ( 'NONE', #763, #1128, #385 ) ;
#1036 = SHAPE_DEFINITION_REPRESENTATION ( #585, #947 ) ;
#1037 = SURFACE_STYLE_FILL_AREA ( #289 ) ;
#1038 = ORIENTED_EDGE ( 'NONE', *, *, #812, .F. ) ;
#1039 = FACE_BOUND ( 'NONE', #629, .T. ) ;
#1040 = EDGE_CURVE ( 'NONE', #296, #296, #1173, .T. ) ;
#1041 = DIRECTION ( 'NONE',  ( 0.000000000000000000, 0.000000000000000000, -1.000000000000000000 ) ) ;
#1042 = SHAPE_DEFINITION_REPRESENTATION ( #159, #254 ) ;
#1043 = CARTESIAN_POINT ( 'NONE',  ( 0.000000000000000000, 26.00000000000000000, -16.00000000000000000 ) ) ;
#1044 = ORIENTED_EDGE ( 'NONE', *, *, #777, .T. ) ;
#1045 = FACE_BOUND ( 'NONE', #436, .T. ) ;
#1046 = CIRCLE ( 'NONE', #1144, 10.49999999999999467 ) ;
#1047 = DIRECTION ( 'NONE',  ( -0.000000000000000000, -1.000000000000000000, -0.000000000000000000 ) ) ;
#1048 =( GEOMETRIC_REPRESENTATION_CONTEXT ( 3 ) GLOBAL_UNCERTAINTY_ASSIGNED_CONTEXT ( ( #21 ) ) GLOBAL_UNIT_ASSIGNED_CONTEXT ( ( #1221, #1132, #284 ) ) REPRESENTATION_CONTEXT ( 'NONE', 'WORKASPACE' ) );
#1049 = APPLICATION_PROTOCOL_DEFINITION ( 'draft international standard', 'automotive_design', 1998, #426 ) ;
#1050 =( NAMED_UNIT ( * ) PLANE_ANGLE_UNIT ( ) SI_UNIT ( $, .RADIAN. ) );
#1051 = DIRECTION ( 'NONE',  ( -0.000000000000000000, -1.000000000000000000, -0.000000000000000000 ) ) ;
#1052 = CARTESIAN_POINT ( 'NONE',  ( 0.000000000000000000, 0.000000000000000000, 0.000000000000000000 ) ) ;
#1053 = DIRECTION ( 'NONE',  ( 0.000000000000000000, 0.000000000000000000, 1.000000000000000000 ) ) ;
#1054 = AXIS2_PLACEMENT_3D ( 'NONE', #944, #478, #189 ) ;
#1055 =( LENGTH_UNIT ( ) NAMED_UNIT ( * ) SI_UNIT ( .MILLI., .METRE. ) );
#1056 = DIRECTION ( 'NONE',  ( 0.000000000000000000, 0.000000000000000000, -1.000000000000000000 ) ) ;
#1057 = DIRECTION ( 'NONE',  ( 0.000000000000000000, -0.000000000000000000, 1.000000000000000000 ) ) ;
#1058 = FACE_OUTER_BOUND ( 'NONE', #962, .T. ) ;
#1059 = CARTESIAN_POINT ( 'NONE',  ( 0.000000000000000000, 38.12435565298199691, -9.000000000000000000 ) ) ;
#1060 = EDGE_CURVE ( 'NONE', #956, #956, #88, .T. ) ;
#1061 = DIRECTION ( 'NONE',  ( -0.000000000000000000, -1.000000000000000000, -0.000000000000000000 ) ) ;
#1062 = CYLINDRICAL_SURFACE ( 'NONE', #1108, 11.00000000000000000 ) ;
#1063 = CIRCLE ( 'NONE', #572, 19.00000000000000000 ) ;
#1064 = DIRECTION ( 'NONE',  ( 0.000000000000000000, 0.000000000000000000, 1.000000000000000000 ) ) ;
#1065 = AXIS2_PLACEMENT_3D ( 'NONE', #666, #1143, #1056 ) ;
#1066 = FACE_BOUND ( 'NONE', #827, .T. ) ;
#1067 =( GEOMETRIC_REPRESENTATION_CONTEXT ( 3 ) GLOBAL_UNCERTAINTY_ASSIGNED_CONTEXT ( ( #828 ) ) GLOBAL_UNIT_ASSIGNED_CONTEXT ( ( #213, #1050, #499 ) ) REPRESENTATION_CONTEXT ( 'NONE', 'WORKASPACE' ) );
#1068 = CYLINDRICAL_SURFACE ( 'NONE', #491, 21.50000000000000000 ) ;
#1069 = PRESENTATION_STYLE_ASSIGNMENT (( #1167 ) ) ;
#1070 = AXIS2_PLACEMENT_3D ( 'NONE', #905, #824, #1204 ) ;
#1071 =( GEOMETRIC_REPRESENTATION_CONTEXT ( 3 ) GLOBAL_UNCERTAINTY_ASSIGNED_CONTEXT ( ( #425 ) ) GLOBAL_UNIT_ASSIGNED_CONTEXT ( ( #1141, #569, #407 ) ) REPRESENTATION_CONTEXT ( 'NONE', 'WORKASPACE' ) );
#1072 = PRODUCT_DEFINITION_CONTEXT ( 'detailed design', #23, 'design' ) ;
#1073 = DIRECTION ( 'NONE',  ( 0.000000000000000000, 0.000000000000000000, -1.000000000000000000 ) ) ;
#1074 = PLANE ( 'NONE',  #164 ) ;
#1075 = DIRECTION ( 'NONE',  ( -0.000000000000000000, -1.000000000000000000, -0.000000000000000000 ) ) ;
#1076 = DIRECTION ( 'NONE',  ( 0.000000000000000000, 0.000000000000000000, 1.000000000000000000 ) ) ;
#1077 = SURFACE_STYLE_FILL_AREA ( #131 ) ;
#1078 = ORIENTED_EDGE ( 'NONE', *, *, #1123, .T. ) ;
#1079 = DIRECTION ( 'NONE',  ( 0.000000000000000000, 0.000000000000000000, -1.000000000000000000 ) ) ;
#1080 = CARTESIAN_POINT ( 'NONE',  ( 0.000000000000000000, 59.85640646055079372, -8.999999999999998224 ) ) ;
#1081 = SURFACE_STYLE_FILL_AREA ( #37 ) ;
#1082 = CONTEXT_DEPENDENT_SHAPE_REPRESENTATION ( #65, #1110 ) ;
#1083 = FACE_OUTER_BOUND ( 'NONE', #1008, .T. ) ;
#1084 = CYLINDRICAL_SURFACE ( 'NONE', #1184, 8.999999999999998224 ) ;
#1085 = CLOSED_SHELL ( 'NONE', ( #239, #661, #33, #939, #124, #836, #54, #558, #1154 ) ) ;
#1086 = AXIS2_PLACEMENT_3D ( 'NONE', #300, #762, #973 ) ;
#1087 = ORIENTED_EDGE ( 'NONE', *, *, #494, .F. ) ;
#1088 = PRODUCT_DEFINITION_CONTEXT ( 'detailed design', #1140, 'design' ) ;
#1089 = VERTEX_POINT ( 'NONE', #635 ) ;
#1090 = FACE_OUTER_BOUND ( 'NONE', #805, .T. ) ;
#1091 = DIRECTION ( 'NONE',  ( 0.000000000000000000, 0.000000000000000000, -1.000000000000000000 ) ) ;
#1092 = PRODUCT_RELATED_PRODUCT_CATEGORY ( 'part', '', ( #630 ) ) ;
#1093 = ORIENTED_EDGE ( 'NONE', *, *, #882, .T. ) ;
#1094 = MECHANICAL_DESIGN_GEOMETRIC_PRESENTATION_REPRESENTATION (  '', ( #818 ), #543 ) ;
#1095 = VERTEX_POINT ( 'NONE', #647 ) ;
#1096 = AXIS2_PLACEMENT_3D ( 'NONE', #576, #931, #1028 ) ;
#1097 = ORIENTED_EDGE ( 'NONE', *, *, #852, .T. ) ;
#1098 = ORIENTED_EDGE ( 'NONE', *, *, #1012, .F. ) ;
#1099 = DIRECTION ( 'NONE',  ( 0.000000000000000000, 0.000000000000000000, -1.000000000000000000 ) ) ;
#1100 =( NAMED_UNIT ( * ) SI_UNIT ( $, .STERADIAN. ) SOLID_ANGLE_UNIT ( ) );
#1101 = CIRCLE ( 'NONE', #117, 9.000000000000000000 ) ;
#1102 = ORIENTED_EDGE ( 'NONE', *, *, #251, .T. ) ;
#1103 = CARTESIAN_POINT ( 'NONE',  ( 0.000000000000000000, 26.66987298107780902, 0.000000000000000000 ) ) ;
#1104 = ADVANCED_BREP_SHAPE_REPRESENTATION ( '', ( #396, #751 ), #649 ) ;
#1105 = ORIENTED_EDGE ( 'NONE', *, *, #681, .F. ) ;
#1106 = ADVANCED_FACE ( 'NONE', ( #170, #299 ), #552, .T. ) ;
#1107 = DIRECTION ( 'NONE',  ( -0.000000000000000000, -1.000000000000000000, -0.000000000000000000 ) ) ;
#1108 = AXIS2_PLACEMENT_3D ( 'NONE', #30, #220, #884 ) ;
#1109 = DIRECTION ( 'NONE',  ( 0.000000000000000000, 0.000000000000000000, -1.000000000000000000 ) ) ;
#1110 = PRODUCT_DEFINITION_SHAPE ( 'NONE', 'NONE',  #1232 ) ;
#1111 = EDGE_LOOP ( 'NONE', ( #636 ) ) ;
#1112 = DIRECTION ( 'NONE',  ( -0.000000000000000000, -1.000000000000000000, -0.000000000000000000 ) ) ;
#1113 = CIRCLE ( 'NONE', #1223, 11.00000000000000000 ) ;
#1114 = FACE_OUTER_BOUND ( 'NONE', #998, .T. ) ;
#1115 = FACE_OUTER_BOUND ( 'NONE', #451, .T. ) ;
#1116 = VERTEX_POINT ( 'NONE', #527 ) ;
#1117 = ORIENTED_EDGE ( 'NONE', *, *, #958, .F. ) ;
#1118 = DIRECTION ( 'NONE',  ( 0.000000000000000000, 0.000000000000000000, -1.000000000000000000 ) ) ;
#1119 = EDGE_LOOP ( 'NONE', ( #369 ) ) ;
#1120 = CARTESIAN_POINT ( 'NONE',  ( 0.000000000000000000, 0.000000000000000000, 0.000000000000000000 ) ) ;
#1121 = DIRECTION ( 'NONE',  ( -0.000000000000000000, -1.000000000000000000, -0.000000000000000000 ) ) ;
#1122 = PRESENTATION_STYLE_ASSIGNMENT (( #582 ) ) ;
#1123 = EDGE_CURVE ( 'NONE', #868, #868, #1193, .T. ) ;
#1124 = CARTESIAN_POINT ( 'NONE',  ( 0.000000000000000000, 26.66987298107781257, -19.99999999999999645 ) ) ;
#1125 = EDGE_LOOP ( 'NONE', ( #755 ) ) ;
#1126 = DIRECTION ( 'NONE',  ( 0.000000000000000000, 0.000000000000000000, -1.000000000000000000 ) ) ;
#1127 = AXIS2_PLACEMENT_3D ( 'NONE', #376, #550, #1022 ) ;
#1128 = DIRECTION ( 'NONE',  ( -0.000000000000000000, -1.000000000000000000, -0.000000000000000000 ) ) ;
#1129 = DIRECTION ( 'NONE',  ( 1.000000000000000000, 0.000000000000000000, 0.000000000000000000 ) ) ;
#1130 = PRESENTATION_LAYER_ASSIGNMENT (  '', '', ( #442 ) ) ;
#1131 = ORIENTED_EDGE ( 'NONE', *, *, #852, .F. ) ;
#1132 =( NAMED_UNIT ( * ) PLANE_ANGLE_UNIT ( ) SI_UNIT ( $, .RADIAN. ) );
#1133 = PRODUCT_DEFINITION ( '未知', '', #127, #232 ) ;
#1134 = CARTESIAN_POINT ( 'NONE',  ( 0.000000000000000000, 58.12435565298193296, 0.000000000000000000 ) ) ;
#1135 = PRODUCT_CONTEXT ( 'NONE', #2, 'mechanical' ) ;
#1136 = VERTEX_POINT ( 'NONE', #393 ) ;
#1137 = EDGE_LOOP ( 'NONE', ( #737 ) ) ;
#1138 = DIRECTION ( 'NONE',  ( -0.000000000000000000, -1.000000000000000000, -0.000000000000000000 ) ) ;
#1139 = DIRECTION ( 'NONE',  ( 0.000000000000000000, 0.000000000000000000, 1.000000000000000000 ) ) ;
#1140 = APPLICATION_CONTEXT ( 'automotive_design' ) ;
#1141 =( LENGTH_UNIT ( ) NAMED_UNIT ( * ) SI_UNIT ( .MILLI., .METRE. ) );
#1142 = SHAPE_REPRESENTATION_RELATIONSHIP ( 'NONE' , 'NONE' ,  #254, #107 ) ;
#1143 = DIRECTION ( 'NONE',  ( -0.000000000000000000, -1.000000000000000000, -0.000000000000000000 ) ) ;
#1144 = AXIS2_PLACEMENT_3D ( 'NONE', #32, #892, #1064 ) ;
#1145 = CARTESIAN_POINT ( 'NONE',  ( 0.000000000000000000, 26.66987298107780546, 0.000000000000000000 ) ) ;
#1146 = AXIS2_PLACEMENT_3D ( 'NONE', #428, #706, #130 ) ;
#1147 = ADVANCED_FACE ( 'NONE', ( #682, #676 ), #123, .F. ) ;
#1148 = PRODUCT_CONTEXT ( 'NONE', #301, 'mechanical' ) ;
#1149 = DIRECTION ( 'NONE',  ( 0.000000000000000000, 0.000000000000000000, 1.000000000000000000 ) ) ;
#1150 = FACE_OUTER_BOUND ( 'NONE', #1222, .T. ) ;
#1151 = DIRECTION ( 'NONE',  ( 0.000000000000000000, 0.000000000000000000, -1.000000000000000000 ) ) ;
#1152 = PRODUCT_DEFINITION_SHAPE ( 'NONE', 'NONE',  #888 ) ;
#1153 = FILL_AREA_STYLE_COLOUR ( '', #7 ) ;
#1154 = ADVANCED_FACE ( 'NONE', ( #1066, #501 ), #386, .T. ) ;
#1155 = DIRECTION ( 'NONE',  ( 0.000000000000000000, 0.000000000000000000, 1.000000000000000000 ) ) ;
#1156 = CONICAL_SURFACE ( 'NONE', #930, 21.49999999999999645, 0.5235987755983040337 ) ;
#1157 = VERTEX_POINT ( 'NONE', #754 ) ;
#1158 = PRESENTATION_LAYER_ASSIGNMENT (  '', '', ( #993 ) ) ;
#1159 = DIRECTION ( 'NONE',  ( -0.000000000000000000, -1.000000000000000000, -0.000000000000000000 ) ) ;
#1160 = DIRECTION ( 'NONE',  ( 0.000000000000000000, 0.000000000000000000, -1.000000000000000000 ) ) ;
#1161 = EDGE_CURVE ( 'NONE', #748, #748, #287, .T. ) ;
#1162 = FACE_OUTER_BOUND ( 'NONE', #145, .T. ) ;
#1163 = APPLICATION_CONTEXT ( 'automotive_design' ) ;
#1164 = CIRCLE ( 'NONE', #453, 11.00000000000000178 ) ;
#1165 = CARTESIAN_POINT ( 'NONE',  ( 0.000000000000000000, 0.000000000000000000, 0.000000000000000000 ) ) ;
#1166 = CONICAL_SURFACE ( 'NONE', #511, 20.49999999999999289, 0.5235987755983039227 ) ;
#1167 = SURFACE_STYLE_USAGE ( .BOTH. , #686 ) ;
#1168 = EDGE_CURVE ( 'NONE', #20, #20, #949, .T. ) ;
#1169 = AXIS2_PLACEMENT_3D ( 'NONE', #878, #119, #783 ) ;
#1170 = FACE_OUTER_BOUND ( 'NONE', #631, .T. ) ;
#1171 = FACE_OUTER_BOUND ( 'NONE', #1014, .T. ) ;
#1172 = DIRECTION ( 'NONE',  ( 0.000000000000000000, 0.000000000000000000, -1.000000000000000000 ) ) ;
#1173 = CIRCLE ( 'NONE', #791, 11.00000000000000178 ) ;
#1174 = CARTESIAN_POINT ( 'NONE',  ( 0.000000000000000000, 44.85640646055079372, 0.000000000000000000 ) ) ;
#1175 = FACE_OUTER_BOUND ( 'NONE', #1220, .T. ) ;
#1176 =( NAMED_UNIT ( * ) PLANE_ANGLE_UNIT ( ) SI_UNIT ( $, .RADIAN. ) );
#1177 = ORIENTED_EDGE ( 'NONE', *, *, #958, .T. ) ;
#1178 = CARTESIAN_POINT ( 'NONE',  ( 0.000000000000000000, 70.24871130596393698, 10.49999999999998224 ) ) ;
#1179 = ADVANCED_FACE ( 'NONE', ( #672, #487 ), #1062, .T. ) ;
#1180 = FACE_OUTER_BOUND ( 'NONE', #165, .T. ) ;
#1181 = FACE_OUTER_BOUND ( 'NONE', #375, .T. ) ;
#1182 = AXIS2_PLACEMENT_3D ( 'NONE', #776, #237, #333 ) ;
#1183 = DIRECTION ( 'NONE',  ( -0.000000000000000000, -1.000000000000000000, -0.000000000000000000 ) ) ;
#1184 = AXIS2_PLACEMENT_3D ( 'NONE', #985, #669, #578 ) ;
#1185 = EDGE_LOOP ( 'NONE', ( #709 ) ) ;
#1186 = DIRECTION ( 'NONE',  ( -0.000000000000000000, -1.000000000000000000, -0.000000000000000000 ) ) ;
#1187 = VERTEX_POINT ( 'NONE', #1080 ) ;
#1188 = EDGE_LOOP ( 'NONE', ( #5 ) ) ;
#1189 = PRODUCT_RELATED_PRODUCT_CATEGORY ( 'part', '', ( #409 ) ) ;
#1190 =( NAMED_UNIT ( * ) PLANE_ANGLE_UNIT ( ) SI_UNIT ( $, .RADIAN. ) );
#1191 = EDGE_LOOP ( 'NONE', ( #1024 ) ) ;
#1192 = DIRECTION ( 'NONE',  ( -0.000000000000000000, -1.000000000000000000, -0.000000000000000000 ) ) ;
#1193 = CIRCLE ( 'NONE', #652, 16.00000000000000000 ) ;
#1194 = ORIENTED_EDGE ( 'NONE', *, *, #106, .F. ) ;
#1195 = AXIS2_PLACEMENT_3D ( 'NONE', #1207, #99, #116 ) ;
#1196 =( NAMED_UNIT ( * ) SI_UNIT ( $, .STERADIAN. ) SOLID_ANGLE_UNIT ( ) );
#1197 = FACE_BOUND ( 'NONE', #720, .T. ) ;
#1198 = SURFACE_SIDE_STYLE ('',( #155 ) ) ;
#1199 = ORIENTED_EDGE ( 'NONE', *, *, #620, .F. ) ;
#1200 = DIRECTION ( 'NONE',  ( -0.000000000000000000, -1.000000000000000000, -0.000000000000000000 ) ) ;
#1201 = ADVANCED_FACE ( 'NONE', ( #216, #1162 ), #410, .F. ) ;
#1202 = PRODUCT_DEFINITION_SHAPE ( 'NONE', 'NONE',  #314 ) ;
#1203 = ORIENTED_EDGE ( 'NONE', *, *, #1168, .T. ) ;
#1204 = DIRECTION ( 'NONE',  ( 0.000000000000000000, 0.000000000000000000, -1.000000000000000000 ) ) ;
#1205 = MANIFOLD_SOLID_BREP ( '倒角1', #701 ) ;
#1206 = FACE_BOUND ( 'NONE', #534, .T. ) ;
#1207 = CARTESIAN_POINT ( 'NONE',  ( 0.000000000000000000, 0.000000000000000000, 0.000000000000000000 ) ) ;
#1208 =( REPRESENTATION_RELATIONSHIP ('NONE','NONE', #372, #254 ) REPRESENTATION_RELATIONSHIP_WITH_TRANSFORMATION ( #304 )SHAPE_REPRESENTATION_RELATIONSHIP( ) );
#1209 = CONICAL_SURFACE ( 'NONE', #320, 8.999999999999998224, 0.5235987755983042558 ) ;
#1210 = CIRCLE ( 'NONE', #680, 18.49999999999999645 ) ;
#1211 = ORIENTED_EDGE ( 'NONE', *, *, #419, .T. ) ;
#1212 = FACE_OUTER_BOUND ( 'NONE', #972, .T. ) ;
#1213 = CIRCLE ( 'NONE', #980, 8.999999999999998224 ) ;
#1214 = ADVANCED_FACE ( 'NONE', ( #421, #1170 ), #325, .F. ) ;
#1215 = EDGE_LOOP ( 'NONE', ( #1097 ) ) ;
#1216 = DIRECTION ( 'NONE',  ( 0.000000000000000000, -0.000000000000000000, 1.000000000000000000 ) ) ;
#1217 = MECHANICAL_DESIGN_GEOMETRIC_PRESENTATION_REPRESENTATION (  '', ( #832 ), #559 ) ;
#1218 = SURFACE_STYLE_FILL_AREA ( #367 ) ;
#1219 = VERTEX_POINT ( 'NONE', #808 ) ;
#1220 = EDGE_LOOP ( 'NONE', ( #835 ) ) ;
#1221 =( LENGTH_UNIT ( ) NAMED_UNIT ( * ) SI_UNIT ( .MILLI., .METRE. ) );
#1222 = EDGE_LOOP ( 'NONE', ( #1131 ) ) ;
#1223 = AXIS2_PLACEMENT_3D ( 'NONE', #1224, #738, #1139 ) ;
#1224 = CARTESIAN_POINT ( 'NONE',  ( 0.000000000000000000, 56.75833024919752035, 0.000000000000000000 ) ) ;
#1225 = ADVANCED_FACE ( 'NONE', ( #202, #115 ), #773, .T. ) ;
#1226 = SURFACE_STYLE_USAGE ( .BOTH. , #719 ) ;
#1227 = VERTEX_POINT ( 'NONE', #607 ) ;
#1228 = ORIENTED_EDGE ( 'NONE', *, *, #971, .T. ) ;
#1229 = FACE_BOUND ( 'NONE', #935, .T. ) ;
#1230 = PRESENTATION_LAYER_ASSIGNMENT (  '', '', ( #850 ) ) ;
#1231 = NEXT_ASSEMBLY_USAGE_OCCURRENCE ( 'NAUO1', ' ', ' ', #567, #389, $ ) ;
#1232 = NEXT_ASSEMBLY_USAGE_OCCURRENCE ( 'NAUO2', ' ', ' ', #567, #1133, $ ) ;
#1233 = NEXT_ASSEMBLY_USAGE_OCCURRENCE ( 'NAUO3', ' ', ' ', #567, #314, $ ) ;
#1234 = NEXT_ASSEMBLY_USAGE_OCCURRENCE ( 'NAUO4', ' ', ' ', #567, #89, $ ) ;
#1235 = NEXT_ASSEMBLY_USAGE_OCCURRENCE ( 'NAUO5', ' ', ' ', #567, #888, $ ) ;
ENDSEC;
END-ISO-10303-21;
