0
SECTION
2
HEADER
9
$INSUNITS
70
1
9
$ACADVER
1
AC1014
9
$HANDSEED
5
FFFF
0
ENDSEC
0
SECTION
2
TABLES
0
TABLE
2
VPORT
5
8
100
AcDbSymbolTable
0
ENDTAB
0
TABLE
2
LTYPE
5
5
100
AcDbSymbolTable
0
LTYPE
5
14
100
AcDbSymbolTableRecord
100
AcDbLinetypeTableRecord
2
BYBLOCK
70
0
0
LTYPE
5
15
100
AcDbSymbolTableRecord
100
AcDbLinetypeTableRecord
2
BYLAYER
70
0
0
ENDTAB
0
TABLE
2
LAYER
5
2
100
AcDbSymbolTable
70
2
0
LAYER
5
50
100
AcDbSymbolTableRecord
100
AcDbLayerTableRecord
2
0
70
0
6
CONTINUOUS
0
ENDTAB
0
TABLE
2
STYLE
5
3
100
AcDbSymbolTable
70
1
0
STYLE
5
11
100
AcDbSymbolTableRecord
100
AcDbTextStyleTableRecord
2
STANDARD
70
0
0
ENDTAB
0
TABLE
2
VIEW
5
6
100
AcDbSymbolTable
70
0
0
ENDTAB
0
TABLE
2
UCS
5
7
100
AcDbSymbolTable
70
0
0
ENDTAB
0
TABLE
2
APPID
5
9
100
AcDbSymbolTable
70
2
0
APPID
5
12
100
AcDbSymbolTableRecord
100
AcDbRegAppTableRecord
2
ACAD
70
0
0
ENDTAB
0
TABLE
2
DIMSTYLE
5
A
100
AcDbSymbolTable
70
1
0
ENDTAB
0
TABLE
2
BLOCK_RECORD
5
1
100
AcDbSymbolTable
70
1
0
BLOCK_RECORD
5
1F
100
AcDbSymbolTableRecord
100
AcDbBlockTableRecord
2
*MODEL_SPACE
0
BLOCK_RECORD
5
1B
100
AcDbSymbolTableRecord
100
AcDbBlockTableRecord
2
*PAPER_SPACE
0
ENDTAB
0
ENDSEC
0
SECTION
2
BLOCKS
0
BLOCK
5
20
100
AcDbEntity
100
AcDbBlockBegin
2
*MODEL_SPACE
0
ENDBLK
5
21
100
AcDbEntity
100
AcDbBlockEnd
0
BLOCK
5
1C
100
AcDbEntity
100
AcDbBlockBegin
2
*PAPER_SPACE
0
ENDBLK
5
1D
100
AcDbEntity
100
AcDbBlockEnd
0
ENDSEC
0
SECTION
2
ENTITIES
0
LWPOLYLINE
5
100
100
AcDbEntity
8
0
100
AcDbPolyline
90
9
70
1
43
0.0
10
0.59055118108041937
20
-3.3464566929156598
10
-2.1942815019061941e-11
20
-3.3464566929156598
10
-2.1972286195217592e-11
20
-2.2735968838150446e-12
10
-3.3464566929354271
20
-2.2750174447717503e-12
10
-3.3464566929354271
20
0.59055118110008775
10
-13.425196850399924
20
0.59055118110008664
10
-13.425196850399841
20
-8.8582677165378332
10
0.51181102360025421
20
-8.8582677165377088
10
0.59055118108056526
20
-8.779527559057394
0
CIRCLE
5
101
100
AcDbEntity
8
0
100
AcDbCircle
10
-12.145669291360599
20
-1.4763779527583545
30
0
40
0.10826771653543425
210
-3.0814879110195774e-33
220
-1.7105694144590048e-49
230
1
0
CIRCLE
5
102
100
AcDbEntity
8
0
100
AcDbCircle
10
-3.2480314960951935
20
-4.9606299212515683
30
0
40
0.10826771653543206
210
-4.622231866529366e-33
220
-2.5658541216885074e-49
230
1
0
CIRCLE
5
103
100
AcDbEntity
8
0
100
AcDbCircle
10
-12.874015748053544
20
-0.59055118110491056
30
0
40
0.10826771653543425
210
-3.0814879110195774e-33
220
-1.7105694144590048e-49
230
1
0
CIRCLE
5
104
100
AcDbEntity
8
0
100
AcDbCircle
10
-12.874015748053479
20
-4.1338582677190834
30
0
40
0.10826771653543425
210
-3.0814879110195774e-33
220
-1.7105694144590048e-49
230
1
0
CIRCLE
5
105
100
AcDbEntity
8
0
100
AcDbCircle
10
-12.874015748053411
20
-7.6771653543332574
30
0
40
0.10826771653543425
210
-3.0814879110195774e-33
220
-1.7105694144590048e-49
230
1
0
CIRCLE
5
106
100
AcDbEntity
8
0
100
AcDbCircle
10
-11.417322834675121
20
-5.9055118110257743
30
0
40
0.10826771653543206
210
-4.622231866529366e-33
220
-2.5658541216885074e-49
230
1
0
CIRCLE
5
107
100
AcDbEntity
8
0
100
AcDbCircle
10
-11.417322834675169
20
-2.362204724397353
30
0
40
0.10826771653543206
210
-4.622231866529366e-33
220
-2.5658541216885074e-49
230
1
0
CIRCLE
5
108
100
AcDbEntity
8
0
100
AcDbCircle
10
-9.6456692913609814
20
0.17716535432839964
30
0
40
0.10826771653543206
210
-4.622231866529366e-33
220
-2.5658541216885074e-49
230
1
0
CIRCLE
5
109
100
AcDbEntity
8
0
100
AcDbCircle
10
-9.6456692913680815
20
-2.3622047243973388
30
0
40
0.10826771653543206
210
-4.622231866529366e-33
220
-2.5658541216885074e-49
230
1
0
CIRCLE
5
110
100
AcDbEntity
8
0
100
AcDbCircle
10
-9.6456692913680353
20
-5.9055118110257618
30
0
40
0.10826771653543206
210
-4.622231866529366e-33
220
-2.5658541216885074e-49
230
1
0
CIRCLE
5
111
100
AcDbEntity
8
0
100
AcDbCircle
10
-7.8740157480609341
20
-7.6771653543185803
30
0
40
0.10826771653543206
210
-4.622231866529366e-33
220
-2.5658541216885074e-49
230
1
0
CIRCLE
5
112
100
AcDbEntity
8
0
100
AcDbCircle
10
-7.8740157480609687
20
-4.1338582677186526
30
0
40
0.10826771653543206
210
-4.622231866529366e-33
220
-2.5658541216885074e-49
230
1
0
CIRCLE
5
113
100
AcDbEntity
8
0
100
AcDbCircle
10
-7.8740157480538855
20
-0.59055118110448868
30
0
40
0.10826771653543206
210
-4.622231866529366e-33
220
-2.5658541216885074e-49
230
1
0
CIRCLE
5
114
100
AcDbEntity
8
0
100
AcDbCircle
10
-6.1023622047467994
20
-0.59055118110447335
30
0
40
0.10826771653543206
210
-4.622231866529366e-33
220
-2.5658541216885074e-49
230
1
0
CIRCLE
5
115
100
AcDbEntity
8
0
100
AcDbCircle
10
-6.1023622047539101
20
-2.3622047243973077
30
0
40
0.10826771653543206
210
-4.622231866529366e-33
220
-2.5658541216885074e-49
230
1
0
CIRCLE
5
116
100
AcDbEntity
8
0
100
AcDbCircle
10
-6.1023622047538701
20
-5.905511811025729
30
0
40
0.10826771653543206
210
-4.622231866529366e-33
220
-2.5658541216885074e-49
230
1
0
CIRCLE
5
117
100
AcDbEntity
8
0
100
AcDbCircle
10
-4.3307086614467991
20
-4.1338582677186251
30
0
40
0.10826771653543206
210
-4.622231866529366e-33
220
-2.5658541216885074e-49
230
1
0
CIRCLE
5
118
100
AcDbEntity
8
0
100
AcDbCircle
10
-4.7244094488515236
20
-1.6535433070779819
30
0
40
0.10826771653543206
210
-4.622231866529366e-33
220
-2.5658541216885074e-49
230
1
0
CIRCLE
5
119
100
AcDbEntity
8
0
100
AcDbCircle
10
-4.3307086614397132
20
-0.59055118110445781
30
0
40
0.10826771653543206
210
-4.622231866529366e-33
220
-2.5658541216885074e-49
230
1
0
CIRCLE
5
120
100
AcDbEntity
8
0
100
AcDbCircle
10
-3.4251968504263126
20
-2.9527559055031665
30
0
40
0.10826771653543206
210
-4.622231866529366e-33
220
-2.5658541216885074e-49
230
1
0
CIRCLE
5
121
100
AcDbEntity
8
0
100
AcDbCircle
10
-4.3307086614467831
20
-5.905511811025713
30
0
40
0.10826771653543206
210
-4.622231866529366e-33
220
-2.5658541216885074e-49
230
1
0
CIRCLE
5
122
100
AcDbEntity
8
0
100
AcDbCircle
10
-2.5590551181325547
20
-7.2834645669312073
30
0
40
0.10826771653543206
210
-4.622231866529366e-33
220
-2.5658541216885074e-49
230
1
0
CIRCLE
5
123
100
AcDbEntity
8
0
100
AcDbCircle
10
-2.5590551181397148
20
-4.1338582677186055
30
-2.4846012762866511e-30
40
0.10826771653543425
210
-3.0814879110195774e-33
220
-1.7105694144590048e-49
230
1
0
CIRCLE
5
124
100
AcDbEntity
8
0
100
AcDbCircle
10
-0.98425196853341568
20
-4.133858267718594
30
0
40
0.10826771653543425
210
-3.0814879110195774e-33
220
-1.7105694144590048e-49
230
1
0
CIRCLE
5
125
100
AcDbEntity
8
0
100
AcDbCircle
10
-0.98425196853340013
20
-5.9055118110256819
30
0
40
0.10826771653543206
210
-4.622231866529366e-33
220
-2.5658541216885074e-49
230
1
0
CIRCLE
5
126
100
AcDbEntity
8
0
100
AcDbCircle
10
-0.98425196853337482
20
-7.6771653543327707
30
0
40
0.10826771653543425
210
-3.0814879110195774e-33
220
-1.7105694144590048e-49
230
1
0
CIRCLE
5
127
100
AcDbEntity
8
0
100
AcDbCircle
10
0.17716535430861485
20
-7.6771653543327645
30
0
40
0.10826771653543206
210
-4.622231866529366e-33
220
-2.5658541216885074e-49
230
1
0
CIRCLE
5
128
100
AcDbEntity
8
0
100
AcDbCircle
10
0.17716535430859942
20
-5.905511811025673
30
0
40
0.10826771653543425
210
-3.0814879110195774e-33
220
-1.7105694144590048e-49
230
1
0
CIRCLE
5
129
100
AcDbEntity
8
0
100
AcDbCircle
10
0.17716535430858391
20
-4.133858267718586
30
0
40
0.10826771653543425
210
-3.0814879110195774e-33
220
-1.7105694144590048e-49
230
1
0
CIRCLE
5
130
100
AcDbEntity
8
0
100
AcDbCircle
10
-0.98425196853343966
20
-2.3622047244115065
30
0
40
0.10826771653543206
210
-4.622231866529366e-33
220
-2.5658541216885074e-49
230
1
0
CIRCLE
5
131
100
AcDbEntity
8
0
100
AcDbCircle
10
-2.5590551181326306
20
-0.59055118110444216
30
-2.4846012762866511e-30
40
0.10826771653543425
210
-3.0814879110195774e-33
220
-1.7105694144590048e-49
230
1
0
CIRCLE
5
132
100
AcDbEntity
8
0
100
AcDbCircle
10
-2.5590551181397387
20
-2.3622047243972766
30
0
40
0.10826771653543425
210
-3.0814879110195774e-33
220
-1.7105694144590048e-49
230
1
0
CIRCLE
5
133
100
AcDbEntity
8
0
100
AcDbCircle
10
-2.5590551181396992
20
-5.905511811025697
30
0
40
0.10826771653543206
210
-4.622231866529366e-33
220
-2.5658541216885074e-49
230
1
0
CIRCLE
5
134
100
AcDbEntity
8
0
100
AcDbCircle
10
-4.3307086614467591
20
-7.6771653543185518
30
0
40
0.10826771653543206
210
-4.622231866529366e-33
220
-2.5658541216885074e-49
230
1
0
CIRCLE
5
135
100
AcDbEntity
8
0
100
AcDbCircle
10
-3.2480314960953782
20
-4.5275590551098004
30
0
40
0.10826771653543206
210
-4.622231866529366e-33
220
-2.5658541216885074e-49
230
1
0
CIRCLE
5
136
100
AcDbEntity
8
0
100
AcDbCircle
10
-4.3307086614395391
20
0.17716535432833169
30
0
40
0.10826771653543206
210
-4.622231866529366e-33
220
-2.5658541216885074e-49
230
1
0
CIRCLE
5
137
100
AcDbEntity
8
0
100
AcDbCircle
10
-4.1338582677489448
20
-1.4763779527476013
30
0
40
0.10826771653543206
210
-4.622231866529366e-33
220
-2.5658541216885074e-49
230
1
0
CIRCLE
5
138
100
AcDbEntity
8
0
100
AcDbCircle
10
-4.3307086614468231
20
-2.3622047243972935
30
0
40
0.10826771653543206
210
-4.622231866529366e-33
220
-2.5658541216885074e-49
230
1
0
CIRCLE
5
139
100
AcDbEntity
8
0
100
AcDbCircle
10
-6.1023622047538462
20
-7.6771653543185687
30
0
40
0.10826771653543206
210
-4.622231866529366e-33
220
-2.5658541216885074e-49
230
1
0
CIRCLE
5
140
100
AcDbEntity
8
0
100
AcDbCircle
10
-6.102362204753887
20
-4.1338582677186375
30
0
40
0.10826771653543206
210
-4.622231866529366e-33
220
-2.5658541216885074e-49
230
1
0
CIRCLE
5
141
100
AcDbEntity
8
0
100
AcDbCircle
10
-6.2992125984576015
20
-1.4763779527476202
30
0
40
0.10826771653543206
210
-4.622231866529366e-33
220
-2.5658541216885074e-49
230
1
0
CIRCLE
5
142
100
AcDbEntity
8
0
100
AcDbCircle
10
-7.8740157480538899
20
0.1771653543284151
30
0
40
0.10826771653543206
210
-4.622231866529366e-33
220
-2.5658541216885074e-49
230
1
0
CIRCLE
5
143
100
AcDbEntity
8
0
100
AcDbCircle
10
-7.8740157480609954
20
-2.3622047243973223
30
0
40
0.10826771653543206
210
-4.622231866529366e-33
220
-2.5658541216885074e-49
230
1
0
CIRCLE
5
144
100
AcDbEntity
8
0
100
AcDbCircle
10
-7.8740157480609536
20
-5.9055118110257405
30
0
40
0.10826771653543206
210
-4.622231866529366e-33
220
-2.5658541216885074e-49
230
1
0
CIRCLE
5
145
100
AcDbEntity
8
0
100
AcDbCircle
10
-9.6456692913680193
20
-7.6771653543185963
30
0
40
0.10826771653543206
210
-4.622231866529366e-33
220
-2.5658541216885074e-49
230
1
0
CIRCLE
5
146
100
AcDbEntity
8
0
100
AcDbCircle
10
-9.6456692913680531
20
-4.1338582677186713
30
0
40
0.10826771653543206
210
-4.622231866529366e-33
220
-2.5658541216885074e-49
230
1
0
CIRCLE
5
147
100
AcDbEntity
8
0
100
AcDbCircle
10
-9.645669291360969
20
-0.59055118110450422
30
0
40
0.10826771653543206
210
-4.622231866529366e-33
220
-2.5658541216885074e-49
230
1
0
CIRCLE
5
148
100
AcDbEntity
8
0
100
AcDbCircle
10
-11.417322834668056
20
-0.59055118110451998
30
0
40
0.10826771653543206
210
-4.622231866529366e-33
220
-2.5658541216885074e-49
230
1
0
CIRCLE
5
149
100
AcDbEntity
8
0
100
AcDbCircle
10
-11.417322834675138
20
-4.1338582677186819
30
0
40
0.10826771653543206
210
-4.622231866529366e-33
220
-2.5658541216885074e-49
230
1
0
CIRCLE
5
150
100
AcDbEntity
8
0
100
AcDbCircle
10
-11.417322834675106
20
-7.6771653543186122
30
0
40
0.10826771653543206
210
-4.622231866529366e-33
220
-2.5658541216885074e-49
230
1
0
CIRCLE
5
151
100
AcDbEntity
8
0
100
AcDbCircle
10
-12.87401574805345
20
-5.9055118110261713
30
0
40
0.10826771653543425
210
-3.0814879110195774e-33
220
-1.7105694144590048e-49
230
1
0
CIRCLE
5
152
100
AcDbEntity
8
0
100
AcDbCircle
10
-12.874015748053512
20
-2.3622047244119946
30
0
40
0.10826771653543425
210
-3.0814879110195774e-33
220
-1.7105694144590048e-49
230
1
0
CIRCLE
5
153
100
AcDbEntity
8
0
100
AcDbCircle
10
-0.98425196853305219
20
-1.4763779527582566
30
0
40
0.10826771653543425
210
-3.0814879110195774e-33
220
-1.7105694144590048e-49
230
1
0
CIRCLE
5
154
100
AcDbEntity
8
0
100
AcDbCircle
10
-6.7322834645991625
20
-1.4763779527476719
30
0
40
0.10826771653543206
210
-4.622231866529366e-33
220
-2.5658541216885074e-49
230
1
0
CIRCLE
5
155
100
AcDbEntity
8
0
100
AcDbCircle
10
0.29527559051893815
20
-3.1889763779445359
30
9.1336833827501204e-18
40
0.10826771653543425
210
-1.2325951644078309e-32
220
-1.8488927466117464e-32
230
1
0
CIRCLE
5
156
100
AcDbEntity
8
0
100
AcDbCircle
10
-3.1889763779849964
20
0.29527559055938607
30
-6.0771569018156343e-18
40
0.10826771653543216
210
1.2325951644078309e-32
220
-1.2325951644078309e-32
230
1
0
CIRCLE
5
157
100
AcDbEntity
8
0
100
AcDbCircle
10
-2.7559055118438369
20
0.29527559055988262
30
-1.5354159514980769e-18
40
0.10826771653543425
210
-1.2325951644078309e-32
220
-1.8488927466117464e-32
230
1
0
CIRCLE
5
158
100
AcDbEntity
8
0
100
AcDbCircle
10
-0.59055118113517024
20
0.29527559055988262
30
-6.8149514924178562e-19
40
0.10826771653543425
210
-1.2325951644078309e-32
220
-1.8488927466117464e-32
230
1
0
CIRCLE
5
159
100
AcDbEntity
8
0
100
AcDbCircle
10
0.29527559051837304
20
-2.7559055118023172
30
-4.6371448845554406e-18
40
0.10826771653543206
210
-2.311115933264683e-32
220
-2.1570415377137042e-32
230
1
0
LWPOLYLINE
5
160
100
AcDbEntity
8
0
100
AcDbPolyline
90
12
70
1
43
0.0
10
0.59055118108031857
20
0.51181102361968644
10
0.51181102360000252
20
0.59055118109999971
10
-3.3464566929354262
20
0.59055118110008786
10
-3.3464566929354262
20
-2.2749955899878008e-12
10
-1.3534351397070232
20
-2.2744492203890681e-12
42
-1.8976816158857486
10
-1.0087695847676836
20
-2.274318091685372e-12
10
-0.062499999999999931
20
1.6164862511301591e-17
42
-2.414213562973222
10
-2.1971715347885386e-11
20
-0.062500000000000056
10
-2.1963336661190348e-11
20
-1.0087695847117084
42
-1.8976816155983107
10
-2.1960386265357189e-11
20
-1.3534351396805613
10
-2.1942860039541434e-11
20
-3.3464566929156598
10
0.59055118108041926
20
-3.3464566929156598
0
ENDSEC
0
SECTION
2
OBJECTS
0
DICTIONARY
5
C
100
AcDbDictionary
3
ACAD_GROUP
350
D
3
ACAD_MLINESTYLE
350
17
0
DICTIONARY
5
D
100
AcDbDictionary
0
DICTIONARY
5
1A
330
C
100
AcDbDictionary
0
DICTIONARY
5
17
100
AcDbDictionary
0
ENDSEC
0
EOF
